SplineFontDB: 3.2
FontName: adm1602kmedium
FullName: adm1602k medium
FamilyName: adm1602k
Weight: Book
Copyright: Copyright (c) 2023, Darren S. Embry
UComments: "2023-2-27: Created with FontForge (http://fontforge.org)"
Version: 001.000
ItalicAngle: 0
UnderlinePosition: -100
UnderlineWidth: 50
Ascent: 875
Descent: 125
InvalidEm: 0
LayerCount: 2
Layer: 0 0 "Back" 1
Layer: 1 0 "Fore" 0
XUID: [1021 312 763016444 5666615]
StyleMap: 0x0040
FSType: 0
OS2Version: 0
OS2_WeightWidthSlopeOnly: 0
OS2_UseTypoMetrics: 1
CreationTime: 1677533768
ModificationTime: 1677533768
PfmFamily: 48
TTFWeight: 400
TTFWidth: 5
LineGap: 0
VLineGap: 90
Panose: 2 0 6 9 0 0 0 0 0 0
OS2TypoAscent: 875
OS2TypoAOffset: 0
OS2TypoDescent: -125
OS2TypoDOffset: 0
OS2TypoLinegap: 0
OS2WinAscent: 875
OS2WinAOffset: 0
OS2WinDescent: 125
OS2WinDOffset: 0
HheadAscent: 875
HheadAOffset: 0
HheadDescent: -125
HheadDOffset: 0
OS2SubXSize: 650
OS2SubYSize: 700
OS2SubXOff: 0
OS2SubYOff: 140
OS2SupXSize: 650
OS2SupYSize: 700
OS2SupXOff: 0
OS2SupYOff: 480
OS2StrikeYSize: 49
OS2StrikeYPos: 258
OS2Vendor: 'PfEd'
MacStyle: 0
DEI: 91125
Encoding: UnicodeBmp
UnicodeInterp: none
NameList: AGL For New Fonts
DisplaySize: 8
AntiAlias: 1
FitToEm: 0
WinInfo: 54 27 11
BeginChars: 65536 96

StartChar: exclam
Encoding: 33 33 1
Width: 578
Flags: HW
LayerCount: 2
Back
Fore
SplineSet
241 760 m 1
 241 865 l 1
 337 865 l 1
 337 760 l 1
 241 760 l 1
241 635 m 1
 241 740 l 1
 337 740 l 1
 337 635 l 1
 241 635 l 1
241 510 m 1
 241 615 l 1
 337 615 l 1
 337 510 l 1
 241 510 l 1
241 385 m 1
 241 490 l 1
 337 490 l 1
 337 385 l 1
 241 385 l 1
241 10 m 1
 241 115 l 1
 337 115 l 1
 337 10 l 1
 241 10 l 1
EndSplineSet
EndChar

StartChar: quotedbl
Encoding: 34 34 2
Width: 578
Flags: HW
LayerCount: 2
Back
Fore
SplineSet
125 760 m 1
 125 865 l 1
 221 865 l 1
 221 760 l 1
 125 760 l 1
356 760 m 1
 356 865 l 1
 452 865 l 1
 452 760 l 1
 356 760 l 1
125 635 m 1
 125 740 l 1
 221 740 l 1
 221 635 l 1
 125 635 l 1
356 635 m 1
 356 740 l 1
 452 740 l 1
 452 635 l 1
 356 635 l 1
125 510 m 1
 125 615 l 1
 221 615 l 1
 221 510 l 1
 125 510 l 1
356 510 m 1
 356 615 l 1
 452 615 l 1
 452 510 l 1
 356 510 l 1
EndSplineSet
EndChar

StartChar: numbersign
Encoding: 35 35 3
Width: 578
Flags: HW
LayerCount: 2
Back
Fore
SplineSet
125 760 m 1
 125 865 l 1
 221 865 l 1
 221 760 l 1
 125 760 l 1
356 760 m 1
 356 865 l 1
 452 865 l 1
 452 760 l 1
 356 760 l 1
125 635 m 1
 125 740 l 1
 221 740 l 1
 221 635 l 1
 125 635 l 1
356 635 m 1
 356 740 l 1
 452 740 l 1
 452 635 l 1
 356 635 l 1
10 510 m 1
 10 615 l 1
 106 615 l 1
 106 510 l 1
 10 510 l 1
125 510 m 1
 125 615 l 1
 221 615 l 1
 221 510 l 1
 125 510 l 1
241 510 m 1
 241 615 l 1
 337 615 l 1
 337 510 l 1
 241 510 l 1
356 510 m 1
 356 615 l 1
 452 615 l 1
 452 510 l 1
 356 510 l 1
472 510 m 1
 472 615 l 1
 568 615 l 1
 568 510 l 1
 472 510 l 1
125 385 m 1
 125 490 l 1
 221 490 l 1
 221 385 l 1
 125 385 l 1
356 385 m 1
 356 490 l 1
 452 490 l 1
 452 385 l 1
 356 385 l 1
10 260 m 1
 10 365 l 1
 106 365 l 1
 106 260 l 1
 10 260 l 1
125 260 m 1
 125 365 l 1
 221 365 l 1
 221 260 l 1
 125 260 l 1
241 260 m 1
 241 365 l 1
 337 365 l 1
 337 260 l 1
 241 260 l 1
356 260 m 1
 356 365 l 1
 452 365 l 1
 452 260 l 1
 356 260 l 1
472 260 m 1
 472 365 l 1
 568 365 l 1
 568 260 l 1
 472 260 l 1
125 135 m 1
 125 240 l 1
 221 240 l 1
 221 135 l 1
 125 135 l 1
356 135 m 1
 356 240 l 1
 452 240 l 1
 452 135 l 1
 356 135 l 1
125 10 m 1
 125 115 l 1
 221 115 l 1
 221 10 l 1
 125 10 l 1
356 10 m 1
 356 115 l 1
 452 115 l 1
 452 10 l 1
 356 10 l 1
EndSplineSet
EndChar

StartChar: dollar
Encoding: 36 36 4
Width: 578
Flags: HW
LayerCount: 2
Back
Fore
SplineSet
241 760 m 1
 241 865 l 1
 337 865 l 1
 337 760 l 1
 241 760 l 1
125 635 m 1
 125 740 l 1
 221 740 l 1
 221 635 l 1
 125 635 l 1
241 635 m 1
 241 740 l 1
 337 740 l 1
 337 635 l 1
 241 635 l 1
356 635 m 1
 356 740 l 1
 452 740 l 1
 452 635 l 1
 356 635 l 1
472 635 m 1
 472 740 l 1
 568 740 l 1
 568 635 l 1
 472 635 l 1
10 510 m 1
 10 615 l 1
 106 615 l 1
 106 510 l 1
 10 510 l 1
241 510 m 1
 241 615 l 1
 337 615 l 1
 337 510 l 1
 241 510 l 1
125 385 m 1
 125 490 l 1
 221 490 l 1
 221 385 l 1
 125 385 l 1
241 385 m 1
 241 490 l 1
 337 490 l 1
 337 385 l 1
 241 385 l 1
356 385 m 1
 356 490 l 1
 452 490 l 1
 452 385 l 1
 356 385 l 1
241 260 m 1
 241 365 l 1
 337 365 l 1
 337 260 l 1
 241 260 l 1
472 260 m 1
 472 365 l 1
 568 365 l 1
 568 260 l 1
 472 260 l 1
10 135 m 1
 10 240 l 1
 106 240 l 1
 106 135 l 1
 10 135 l 1
125 135 m 1
 125 240 l 1
 221 240 l 1
 221 135 l 1
 125 135 l 1
241 135 m 1
 241 240 l 1
 337 240 l 1
 337 135 l 1
 241 135 l 1
356 135 m 1
 356 240 l 1
 452 240 l 1
 452 135 l 1
 356 135 l 1
241 10 m 1
 241 115 l 1
 337 115 l 1
 337 10 l 1
 241 10 l 1
EndSplineSet
EndChar

StartChar: percent
Encoding: 37 37 5
Width: 578
Flags: HW
LayerCount: 2
Back
Fore
SplineSet
10 760 m 1
 10 865 l 1
 106 865 l 1
 106 760 l 1
 10 760 l 1
125 760 m 1
 125 865 l 1
 221 865 l 1
 221 760 l 1
 125 760 l 1
10 635 m 1
 10 740 l 1
 106 740 l 1
 106 635 l 1
 10 635 l 1
125 635 m 1
 125 740 l 1
 221 740 l 1
 221 635 l 1
 125 635 l 1
472 635 m 1
 472 740 l 1
 568 740 l 1
 568 635 l 1
 472 635 l 1
356 510 m 1
 356 615 l 1
 452 615 l 1
 452 510 l 1
 356 510 l 1
241 385 m 1
 241 490 l 1
 337 490 l 1
 337 385 l 1
 241 385 l 1
125 260 m 1
 125 365 l 1
 221 365 l 1
 221 260 l 1
 125 260 l 1
10 135 m 1
 10 240 l 1
 106 240 l 1
 106 135 l 1
 10 135 l 1
356 135 m 1
 356 240 l 1
 452 240 l 1
 452 135 l 1
 356 135 l 1
472 135 m 1
 472 240 l 1
 568 240 l 1
 568 135 l 1
 472 135 l 1
356 10 m 1
 356 115 l 1
 452 115 l 1
 452 10 l 1
 356 10 l 1
472 10 m 1
 472 115 l 1
 568 115 l 1
 568 10 l 1
 472 10 l 1
EndSplineSet
EndChar

StartChar: ampersand
Encoding: 38 38 6
Width: 578
Flags: HW
LayerCount: 2
Back
Fore
SplineSet
125 760 m 1
 125 865 l 1
 221 865 l 1
 221 760 l 1
 125 760 l 1
241 760 m 1
 241 865 l 1
 337 865 l 1
 337 760 l 1
 241 760 l 1
10 635 m 1
 10 740 l 1
 106 740 l 1
 106 635 l 1
 10 635 l 1
356 635 m 1
 356 740 l 1
 452 740 l 1
 452 635 l 1
 356 635 l 1
10 510 m 1
 10 615 l 1
 106 615 l 1
 106 510 l 1
 10 510 l 1
241 510 m 1
 241 615 l 1
 337 615 l 1
 337 510 l 1
 241 510 l 1
125 385 m 1
 125 490 l 1
 221 490 l 1
 221 385 l 1
 125 385 l 1
10 260 m 1
 10 365 l 1
 106 365 l 1
 106 260 l 1
 10 260 l 1
241 260 m 1
 241 365 l 1
 337 365 l 1
 337 260 l 1
 241 260 l 1
472 260 m 1
 472 365 l 1
 568 365 l 1
 568 260 l 1
 472 260 l 1
10 135 m 1
 10 240 l 1
 106 240 l 1
 106 135 l 1
 10 135 l 1
356 135 m 1
 356 240 l 1
 452 240 l 1
 452 135 l 1
 356 135 l 1
125 10 m 1
 125 115 l 1
 221 115 l 1
 221 10 l 1
 125 10 l 1
241 10 m 1
 241 115 l 1
 337 115 l 1
 337 10 l 1
 241 10 l 1
472 10 m 1
 472 115 l 1
 568 115 l 1
 568 10 l 1
 472 10 l 1
EndSplineSet
EndChar

StartChar: quotesingle
Encoding: 39 39 7
Width: 578
Flags: HW
LayerCount: 2
Back
Fore
SplineSet
125 760 m 1
 125 865 l 1
 221 865 l 1
 221 760 l 1
 125 760 l 1
241 760 m 1
 241 865 l 1
 337 865 l 1
 337 760 l 1
 241 760 l 1
241 635 m 1
 241 740 l 1
 337 740 l 1
 337 635 l 1
 241 635 l 1
125 510 m 1
 125 615 l 1
 221 615 l 1
 221 510 l 1
 125 510 l 1
EndSplineSet
EndChar

StartChar: parenleft
Encoding: 40 40 8
Width: 578
Flags: HW
LayerCount: 2
Back
Fore
SplineSet
356 760 m 1
 356 865 l 1
 452 865 l 1
 452 760 l 1
 356 760 l 1
241 635 m 1
 241 740 l 1
 337 740 l 1
 337 635 l 1
 241 635 l 1
125 510 m 1
 125 615 l 1
 221 615 l 1
 221 510 l 1
 125 510 l 1
125 385 m 1
 125 490 l 1
 221 490 l 1
 221 385 l 1
 125 385 l 1
125 260 m 1
 125 365 l 1
 221 365 l 1
 221 260 l 1
 125 260 l 1
241 135 m 1
 241 240 l 1
 337 240 l 1
 337 135 l 1
 241 135 l 1
356 10 m 1
 356 115 l 1
 452 115 l 1
 452 10 l 1
 356 10 l 1
EndSplineSet
EndChar

StartChar: parenright
Encoding: 41 41 9
Width: 578
Flags: HW
LayerCount: 2
Back
Fore
SplineSet
125 760 m 1
 125 865 l 1
 221 865 l 1
 221 760 l 1
 125 760 l 1
241 635 m 1
 241 740 l 1
 337 740 l 1
 337 635 l 1
 241 635 l 1
356 510 m 1
 356 615 l 1
 452 615 l 1
 452 510 l 1
 356 510 l 1
356 385 m 1
 356 490 l 1
 452 490 l 1
 452 385 l 1
 356 385 l 1
356 260 m 1
 356 365 l 1
 452 365 l 1
 452 260 l 1
 356 260 l 1
241 135 m 1
 241 240 l 1
 337 240 l 1
 337 135 l 1
 241 135 l 1
125 10 m 1
 125 115 l 1
 221 115 l 1
 221 10 l 1
 125 10 l 1
EndSplineSet
EndChar

StartChar: asterisk
Encoding: 42 42 10
Width: 578
Flags: HW
LayerCount: 2
Back
Fore
SplineSet
241 635 m 1
 241 740 l 1
 337 740 l 1
 337 635 l 1
 241 635 l 1
10 510 m 1
 10 615 l 1
 106 615 l 1
 106 510 l 1
 10 510 l 1
241 510 m 1
 241 615 l 1
 337 615 l 1
 337 510 l 1
 241 510 l 1
472 510 m 1
 472 615 l 1
 568 615 l 1
 568 510 l 1
 472 510 l 1
125 385 m 1
 125 490 l 1
 221 490 l 1
 221 385 l 1
 125 385 l 1
241 385 m 1
 241 490 l 1
 337 490 l 1
 337 385 l 1
 241 385 l 1
356 385 m 1
 356 490 l 1
 452 490 l 1
 452 385 l 1
 356 385 l 1
10 260 m 1
 10 365 l 1
 106 365 l 1
 106 260 l 1
 10 260 l 1
241 260 m 1
 241 365 l 1
 337 365 l 1
 337 260 l 1
 241 260 l 1
472 260 m 1
 472 365 l 1
 568 365 l 1
 568 260 l 1
 472 260 l 1
241 135 m 1
 241 240 l 1
 337 240 l 1
 337 135 l 1
 241 135 l 1
EndSplineSet
EndChar

StartChar: plus
Encoding: 43 43 11
Width: 578
Flags: HW
LayerCount: 2
Back
Fore
SplineSet
241 635 m 1
 241 740 l 1
 337 740 l 1
 337 635 l 1
 241 635 l 1
241 510 m 1
 241 615 l 1
 337 615 l 1
 337 510 l 1
 241 510 l 1
10 385 m 1
 10 490 l 1
 106 490 l 1
 106 385 l 1
 10 385 l 1
125 385 m 1
 125 490 l 1
 221 490 l 1
 221 385 l 1
 125 385 l 1
241 385 m 1
 241 490 l 1
 337 490 l 1
 337 385 l 1
 241 385 l 1
356 385 m 1
 356 490 l 1
 452 490 l 1
 452 385 l 1
 356 385 l 1
472 385 m 1
 472 490 l 1
 568 490 l 1
 568 385 l 1
 472 385 l 1
241 260 m 1
 241 365 l 1
 337 365 l 1
 337 260 l 1
 241 260 l 1
241 135 m 1
 241 240 l 1
 337 240 l 1
 337 135 l 1
 241 135 l 1
EndSplineSet
EndChar

StartChar: comma
Encoding: 44 44 12
Width: 578
Flags: HW
LayerCount: 2
Back
Fore
SplineSet
125 260 m 1
 125 365 l 1
 221 365 l 1
 221 260 l 1
 125 260 l 1
241 260 m 1
 241 365 l 1
 337 365 l 1
 337 260 l 1
 241 260 l 1
241 135 m 1
 241 240 l 1
 337 240 l 1
 337 135 l 1
 241 135 l 1
125 10 m 1
 125 115 l 1
 221 115 l 1
 221 10 l 1
 125 10 l 1
EndSplineSet
EndChar

StartChar: hyphen
Encoding: 45 45 13
Width: 578
Flags: HW
LayerCount: 2
Back
Fore
SplineSet
10 385 m 1
 10 490 l 1
 106 490 l 1
 106 385 l 1
 10 385 l 1
125 385 m 1
 125 490 l 1
 221 490 l 1
 221 385 l 1
 125 385 l 1
241 385 m 1
 241 490 l 1
 337 490 l 1
 337 385 l 1
 241 385 l 1
356 385 m 1
 356 490 l 1
 452 490 l 1
 452 385 l 1
 356 385 l 1
472 385 m 1
 472 490 l 1
 568 490 l 1
 568 385 l 1
 472 385 l 1
EndSplineSet
EndChar

StartChar: period
Encoding: 46 46 14
Width: 578
Flags: HW
LayerCount: 2
Back
Fore
SplineSet
125 135 m 1
 125 240 l 1
 221 240 l 1
 221 135 l 1
 125 135 l 1
241 135 m 1
 241 240 l 1
 337 240 l 1
 337 135 l 1
 241 135 l 1
125 10 m 1
 125 115 l 1
 221 115 l 1
 221 10 l 1
 125 10 l 1
241 10 m 1
 241 115 l 1
 337 115 l 1
 337 10 l 1
 241 10 l 1
EndSplineSet
EndChar

StartChar: slash
Encoding: 47 47 15
Width: 578
Flags: HW
LayerCount: 2
Back
Fore
SplineSet
472 635 m 1
 472 740 l 1
 568 740 l 1
 568 635 l 1
 472 635 l 1
356 510 m 1
 356 615 l 1
 452 615 l 1
 452 510 l 1
 356 510 l 1
241 385 m 1
 241 490 l 1
 337 490 l 1
 337 385 l 1
 241 385 l 1
125 260 m 1
 125 365 l 1
 221 365 l 1
 221 260 l 1
 125 260 l 1
10 135 m 1
 10 240 l 1
 106 240 l 1
 106 135 l 1
 10 135 l 1
EndSplineSet
EndChar

StartChar: zero
Encoding: 48 48 16
Width: 578
Flags: HW
LayerCount: 2
Back
Fore
SplineSet
125 760 m 1
 125 865 l 1
 221 865 l 1
 221 760 l 1
 125 760 l 1
241 760 m 1
 241 865 l 1
 337 865 l 1
 337 760 l 1
 241 760 l 1
356 760 m 1
 356 865 l 1
 452 865 l 1
 452 760 l 1
 356 760 l 1
10 635 m 1
 10 740 l 1
 106 740 l 1
 106 635 l 1
 10 635 l 1
472 635 m 1
 472 740 l 1
 568 740 l 1
 568 635 l 1
 472 635 l 1
10 510 m 1
 10 615 l 1
 106 615 l 1
 106 510 l 1
 10 510 l 1
356 510 m 1
 356 615 l 1
 452 615 l 1
 452 510 l 1
 356 510 l 1
472 510 m 1
 472 615 l 1
 568 615 l 1
 568 510 l 1
 472 510 l 1
10 385 m 1
 10 490 l 1
 106 490 l 1
 106 385 l 1
 10 385 l 1
241 385 m 1
 241 490 l 1
 337 490 l 1
 337 385 l 1
 241 385 l 1
472 385 m 1
 472 490 l 1
 568 490 l 1
 568 385 l 1
 472 385 l 1
10 260 m 1
 10 365 l 1
 106 365 l 1
 106 260 l 1
 10 260 l 1
125 260 m 1
 125 365 l 1
 221 365 l 1
 221 260 l 1
 125 260 l 1
472 260 m 1
 472 365 l 1
 568 365 l 1
 568 260 l 1
 472 260 l 1
10 135 m 1
 10 240 l 1
 106 240 l 1
 106 135 l 1
 10 135 l 1
472 135 m 1
 472 240 l 1
 568 240 l 1
 568 135 l 1
 472 135 l 1
125 10 m 1
 125 115 l 1
 221 115 l 1
 221 10 l 1
 125 10 l 1
241 10 m 1
 241 115 l 1
 337 115 l 1
 337 10 l 1
 241 10 l 1
356 10 m 1
 356 115 l 1
 452 115 l 1
 452 10 l 1
 356 10 l 1
EndSplineSet
EndChar

StartChar: one
Encoding: 49 49 17
Width: 578
Flags: HW
LayerCount: 2
Back
Fore
SplineSet
241 760 m 1
 241 865 l 1
 337 865 l 1
 337 760 l 1
 241 760 l 1
125 635 m 1
 125 740 l 1
 221 740 l 1
 221 635 l 1
 125 635 l 1
241 635 m 1
 241 740 l 1
 337 740 l 1
 337 635 l 1
 241 635 l 1
241 510 m 1
 241 615 l 1
 337 615 l 1
 337 510 l 1
 241 510 l 1
241 385 m 1
 241 490 l 1
 337 490 l 1
 337 385 l 1
 241 385 l 1
241 260 m 1
 241 365 l 1
 337 365 l 1
 337 260 l 1
 241 260 l 1
241 135 m 1
 241 240 l 1
 337 240 l 1
 337 135 l 1
 241 135 l 1
125 10 m 1
 125 115 l 1
 221 115 l 1
 221 10 l 1
 125 10 l 1
241 10 m 1
 241 115 l 1
 337 115 l 1
 337 10 l 1
 241 10 l 1
356 10 m 1
 356 115 l 1
 452 115 l 1
 452 10 l 1
 356 10 l 1
EndSplineSet
EndChar

StartChar: two
Encoding: 50 50 18
Width: 578
Flags: HW
LayerCount: 2
Back
Fore
SplineSet
125 760 m 1
 125 865 l 1
 221 865 l 1
 221 760 l 1
 125 760 l 1
241 760 m 1
 241 865 l 1
 337 865 l 1
 337 760 l 1
 241 760 l 1
356 760 m 1
 356 865 l 1
 452 865 l 1
 452 760 l 1
 356 760 l 1
10 635 m 1
 10 740 l 1
 106 740 l 1
 106 635 l 1
 10 635 l 1
472 635 m 1
 472 740 l 1
 568 740 l 1
 568 635 l 1
 472 635 l 1
472 510 m 1
 472 615 l 1
 568 615 l 1
 568 510 l 1
 472 510 l 1
356 385 m 1
 356 490 l 1
 452 490 l 1
 452 385 l 1
 356 385 l 1
241 260 m 1
 241 365 l 1
 337 365 l 1
 337 260 l 1
 241 260 l 1
125 135 m 1
 125 240 l 1
 221 240 l 1
 221 135 l 1
 125 135 l 1
10 10 m 1
 10 115 l 1
 106 115 l 1
 106 10 l 1
 10 10 l 1
125 10 m 1
 125 115 l 1
 221 115 l 1
 221 10 l 1
 125 10 l 1
241 10 m 1
 241 115 l 1
 337 115 l 1
 337 10 l 1
 241 10 l 1
356 10 m 1
 356 115 l 1
 452 115 l 1
 452 10 l 1
 356 10 l 1
472 10 m 1
 472 115 l 1
 568 115 l 1
 568 10 l 1
 472 10 l 1
EndSplineSet
EndChar

StartChar: three
Encoding: 51 51 19
Width: 578
Flags: HW
LayerCount: 2
Back
Fore
SplineSet
10 760 m 1
 10 865 l 1
 106 865 l 1
 106 760 l 1
 10 760 l 1
125 760 m 1
 125 865 l 1
 221 865 l 1
 221 760 l 1
 125 760 l 1
241 760 m 1
 241 865 l 1
 337 865 l 1
 337 760 l 1
 241 760 l 1
356 760 m 1
 356 865 l 1
 452 865 l 1
 452 760 l 1
 356 760 l 1
472 760 m 1
 472 865 l 1
 568 865 l 1
 568 760 l 1
 472 760 l 1
356 635 m 1
 356 740 l 1
 452 740 l 1
 452 635 l 1
 356 635 l 1
241 510 m 1
 241 615 l 1
 337 615 l 1
 337 510 l 1
 241 510 l 1
356 385 m 1
 356 490 l 1
 452 490 l 1
 452 385 l 1
 356 385 l 1
472 260 m 1
 472 365 l 1
 568 365 l 1
 568 260 l 1
 472 260 l 1
10 135 m 1
 10 240 l 1
 106 240 l 1
 106 135 l 1
 10 135 l 1
472 135 m 1
 472 240 l 1
 568 240 l 1
 568 135 l 1
 472 135 l 1
125 10 m 1
 125 115 l 1
 221 115 l 1
 221 10 l 1
 125 10 l 1
241 10 m 1
 241 115 l 1
 337 115 l 1
 337 10 l 1
 241 10 l 1
356 10 m 1
 356 115 l 1
 452 115 l 1
 452 10 l 1
 356 10 l 1
EndSplineSet
EndChar

StartChar: four
Encoding: 52 52 20
Width: 578
Flags: HW
LayerCount: 2
Back
Fore
SplineSet
356 760 m 1
 356 865 l 1
 452 865 l 1
 452 760 l 1
 356 760 l 1
241 635 m 1
 241 740 l 1
 337 740 l 1
 337 635 l 1
 241 635 l 1
356 635 m 1
 356 740 l 1
 452 740 l 1
 452 635 l 1
 356 635 l 1
125 510 m 1
 125 615 l 1
 221 615 l 1
 221 510 l 1
 125 510 l 1
356 510 m 1
 356 615 l 1
 452 615 l 1
 452 510 l 1
 356 510 l 1
10 385 m 1
 10 490 l 1
 106 490 l 1
 106 385 l 1
 10 385 l 1
356 385 m 1
 356 490 l 1
 452 490 l 1
 452 385 l 1
 356 385 l 1
10 260 m 1
 10 365 l 1
 106 365 l 1
 106 260 l 1
 10 260 l 1
125 260 m 1
 125 365 l 1
 221 365 l 1
 221 260 l 1
 125 260 l 1
241 260 m 1
 241 365 l 1
 337 365 l 1
 337 260 l 1
 241 260 l 1
356 260 m 1
 356 365 l 1
 452 365 l 1
 452 260 l 1
 356 260 l 1
472 260 m 1
 472 365 l 1
 568 365 l 1
 568 260 l 1
 472 260 l 1
356 135 m 1
 356 240 l 1
 452 240 l 1
 452 135 l 1
 356 135 l 1
356 10 m 1
 356 115 l 1
 452 115 l 1
 452 10 l 1
 356 10 l 1
EndSplineSet
EndChar

StartChar: five
Encoding: 53 53 21
Width: 578
Flags: HW
LayerCount: 2
Back
Fore
SplineSet
10 760 m 1
 10 865 l 1
 106 865 l 1
 106 760 l 1
 10 760 l 1
125 760 m 1
 125 865 l 1
 221 865 l 1
 221 760 l 1
 125 760 l 1
241 760 m 1
 241 865 l 1
 337 865 l 1
 337 760 l 1
 241 760 l 1
356 760 m 1
 356 865 l 1
 452 865 l 1
 452 760 l 1
 356 760 l 1
472 760 m 1
 472 865 l 1
 568 865 l 1
 568 760 l 1
 472 760 l 1
10 635 m 1
 10 740 l 1
 106 740 l 1
 106 635 l 1
 10 635 l 1
10 510 m 1
 10 615 l 1
 106 615 l 1
 106 510 l 1
 10 510 l 1
125 510 m 1
 125 615 l 1
 221 615 l 1
 221 510 l 1
 125 510 l 1
241 510 m 1
 241 615 l 1
 337 615 l 1
 337 510 l 1
 241 510 l 1
356 510 m 1
 356 615 l 1
 452 615 l 1
 452 510 l 1
 356 510 l 1
472 385 m 1
 472 490 l 1
 568 490 l 1
 568 385 l 1
 472 385 l 1
472 260 m 1
 472 365 l 1
 568 365 l 1
 568 260 l 1
 472 260 l 1
10 135 m 1
 10 240 l 1
 106 240 l 1
 106 135 l 1
 10 135 l 1
472 135 m 1
 472 240 l 1
 568 240 l 1
 568 135 l 1
 472 135 l 1
125 10 m 1
 125 115 l 1
 221 115 l 1
 221 10 l 1
 125 10 l 1
241 10 m 1
 241 115 l 1
 337 115 l 1
 337 10 l 1
 241 10 l 1
356 10 m 1
 356 115 l 1
 452 115 l 1
 452 10 l 1
 356 10 l 1
EndSplineSet
EndChar

StartChar: six
Encoding: 54 54 22
Width: 578
Flags: HW
LayerCount: 2
Back
Fore
SplineSet
241 760 m 1
 241 865 l 1
 337 865 l 1
 337 760 l 1
 241 760 l 1
356 760 m 1
 356 865 l 1
 452 865 l 1
 452 760 l 1
 356 760 l 1
125 635 m 1
 125 740 l 1
 221 740 l 1
 221 635 l 1
 125 635 l 1
10 510 m 1
 10 615 l 1
 106 615 l 1
 106 510 l 1
 10 510 l 1
10 385 m 1
 10 490 l 1
 106 490 l 1
 106 385 l 1
 10 385 l 1
125 385 m 1
 125 490 l 1
 221 490 l 1
 221 385 l 1
 125 385 l 1
241 385 m 1
 241 490 l 1
 337 490 l 1
 337 385 l 1
 241 385 l 1
356 385 m 1
 356 490 l 1
 452 490 l 1
 452 385 l 1
 356 385 l 1
10 260 m 1
 10 365 l 1
 106 365 l 1
 106 260 l 1
 10 260 l 1
472 260 m 1
 472 365 l 1
 568 365 l 1
 568 260 l 1
 472 260 l 1
10 135 m 1
 10 240 l 1
 106 240 l 1
 106 135 l 1
 10 135 l 1
472 135 m 1
 472 240 l 1
 568 240 l 1
 568 135 l 1
 472 135 l 1
125 10 m 1
 125 115 l 1
 221 115 l 1
 221 10 l 1
 125 10 l 1
241 10 m 1
 241 115 l 1
 337 115 l 1
 337 10 l 1
 241 10 l 1
356 10 m 1
 356 115 l 1
 452 115 l 1
 452 10 l 1
 356 10 l 1
EndSplineSet
EndChar

StartChar: seven
Encoding: 55 55 23
Width: 578
Flags: HW
LayerCount: 2
Back
Fore
SplineSet
10 760 m 1
 10 865 l 1
 106 865 l 1
 106 760 l 1
 10 760 l 1
125 760 m 1
 125 865 l 1
 221 865 l 1
 221 760 l 1
 125 760 l 1
241 760 m 1
 241 865 l 1
 337 865 l 1
 337 760 l 1
 241 760 l 1
356 760 m 1
 356 865 l 1
 452 865 l 1
 452 760 l 1
 356 760 l 1
472 760 m 1
 472 865 l 1
 568 865 l 1
 568 760 l 1
 472 760 l 1
472 635 m 1
 472 740 l 1
 568 740 l 1
 568 635 l 1
 472 635 l 1
356 510 m 1
 356 615 l 1
 452 615 l 1
 452 510 l 1
 356 510 l 1
241 385 m 1
 241 490 l 1
 337 490 l 1
 337 385 l 1
 241 385 l 1
125 260 m 1
 125 365 l 1
 221 365 l 1
 221 260 l 1
 125 260 l 1
125 135 m 1
 125 240 l 1
 221 240 l 1
 221 135 l 1
 125 135 l 1
125 10 m 1
 125 115 l 1
 221 115 l 1
 221 10 l 1
 125 10 l 1
EndSplineSet
EndChar

StartChar: eight
Encoding: 56 56 24
Width: 578
Flags: HW
LayerCount: 2
Back
Fore
SplineSet
125 760 m 1
 125 865 l 1
 221 865 l 1
 221 760 l 1
 125 760 l 1
241 760 m 1
 241 865 l 1
 337 865 l 1
 337 760 l 1
 241 760 l 1
356 760 m 1
 356 865 l 1
 452 865 l 1
 452 760 l 1
 356 760 l 1
10 635 m 1
 10 740 l 1
 106 740 l 1
 106 635 l 1
 10 635 l 1
472 635 m 1
 472 740 l 1
 568 740 l 1
 568 635 l 1
 472 635 l 1
10 510 m 1
 10 615 l 1
 106 615 l 1
 106 510 l 1
 10 510 l 1
472 510 m 1
 472 615 l 1
 568 615 l 1
 568 510 l 1
 472 510 l 1
125 385 m 1
 125 490 l 1
 221 490 l 1
 221 385 l 1
 125 385 l 1
241 385 m 1
 241 490 l 1
 337 490 l 1
 337 385 l 1
 241 385 l 1
356 385 m 1
 356 490 l 1
 452 490 l 1
 452 385 l 1
 356 385 l 1
10 260 m 1
 10 365 l 1
 106 365 l 1
 106 260 l 1
 10 260 l 1
472 260 m 1
 472 365 l 1
 568 365 l 1
 568 260 l 1
 472 260 l 1
10 135 m 1
 10 240 l 1
 106 240 l 1
 106 135 l 1
 10 135 l 1
472 135 m 1
 472 240 l 1
 568 240 l 1
 568 135 l 1
 472 135 l 1
125 10 m 1
 125 115 l 1
 221 115 l 1
 221 10 l 1
 125 10 l 1
241 10 m 1
 241 115 l 1
 337 115 l 1
 337 10 l 1
 241 10 l 1
356 10 m 1
 356 115 l 1
 452 115 l 1
 452 10 l 1
 356 10 l 1
EndSplineSet
EndChar

StartChar: nine
Encoding: 57 57 25
Width: 578
Flags: HW
LayerCount: 2
Back
Fore
SplineSet
125 760 m 1
 125 865 l 1
 221 865 l 1
 221 760 l 1
 125 760 l 1
241 760 m 1
 241 865 l 1
 337 865 l 1
 337 760 l 1
 241 760 l 1
356 760 m 1
 356 865 l 1
 452 865 l 1
 452 760 l 1
 356 760 l 1
10 635 m 1
 10 740 l 1
 106 740 l 1
 106 635 l 1
 10 635 l 1
472 635 m 1
 472 740 l 1
 568 740 l 1
 568 635 l 1
 472 635 l 1
10 510 m 1
 10 615 l 1
 106 615 l 1
 106 510 l 1
 10 510 l 1
472 510 m 1
 472 615 l 1
 568 615 l 1
 568 510 l 1
 472 510 l 1
125 385 m 1
 125 490 l 1
 221 490 l 1
 221 385 l 1
 125 385 l 1
241 385 m 1
 241 490 l 1
 337 490 l 1
 337 385 l 1
 241 385 l 1
356 385 m 1
 356 490 l 1
 452 490 l 1
 452 385 l 1
 356 385 l 1
472 385 m 1
 472 490 l 1
 568 490 l 1
 568 385 l 1
 472 385 l 1
472 260 m 1
 472 365 l 1
 568 365 l 1
 568 260 l 1
 472 260 l 1
356 135 m 1
 356 240 l 1
 452 240 l 1
 452 135 l 1
 356 135 l 1
125 10 m 1
 125 115 l 1
 221 115 l 1
 221 10 l 1
 125 10 l 1
241 10 m 1
 241 115 l 1
 337 115 l 1
 337 10 l 1
 241 10 l 1
EndSplineSet
EndChar

StartChar: colon
Encoding: 58 58 26
Width: 578
Flags: HW
LayerCount: 2
Back
Fore
SplineSet
125 635 m 1
 125 740 l 1
 221 740 l 1
 221 635 l 1
 125 635 l 1
241 635 m 1
 241 740 l 1
 337 740 l 1
 337 635 l 1
 241 635 l 1
125 510 m 1
 125 615 l 1
 221 615 l 1
 221 510 l 1
 125 510 l 1
241 510 m 1
 241 615 l 1
 337 615 l 1
 337 510 l 1
 241 510 l 1
125 260 m 1
 125 365 l 1
 221 365 l 1
 221 260 l 1
 125 260 l 1
241 260 m 1
 241 365 l 1
 337 365 l 1
 337 260 l 1
 241 260 l 1
125 135 m 1
 125 240 l 1
 221 240 l 1
 221 135 l 1
 125 135 l 1
241 135 m 1
 241 240 l 1
 337 240 l 1
 337 135 l 1
 241 135 l 1
EndSplineSet
EndChar

StartChar: semicolon
Encoding: 59 59 27
Width: 578
Flags: HW
LayerCount: 2
Back
Fore
SplineSet
125 635 m 1
 125 740 l 1
 221 740 l 1
 221 635 l 1
 125 635 l 1
241 635 m 1
 241 740 l 1
 337 740 l 1
 337 635 l 1
 241 635 l 1
125 510 m 1
 125 615 l 1
 221 615 l 1
 221 510 l 1
 125 510 l 1
241 510 m 1
 241 615 l 1
 337 615 l 1
 337 510 l 1
 241 510 l 1
125 260 m 1
 125 365 l 1
 221 365 l 1
 221 260 l 1
 125 260 l 1
241 260 m 1
 241 365 l 1
 337 365 l 1
 337 260 l 1
 241 260 l 1
241 135 m 1
 241 240 l 1
 337 240 l 1
 337 135 l 1
 241 135 l 1
125 10 m 1
 125 115 l 1
 221 115 l 1
 221 10 l 1
 125 10 l 1
EndSplineSet
EndChar

StartChar: less
Encoding: 60 60 28
Width: 578
Flags: HW
LayerCount: 2
Back
Fore
SplineSet
356 760 m 1
 356 865 l 1
 452 865 l 1
 452 760 l 1
 356 760 l 1
241 635 m 1
 241 740 l 1
 337 740 l 1
 337 635 l 1
 241 635 l 1
125 510 m 1
 125 615 l 1
 221 615 l 1
 221 510 l 1
 125 510 l 1
10 385 m 1
 10 490 l 1
 106 490 l 1
 106 385 l 1
 10 385 l 1
125 260 m 1
 125 365 l 1
 221 365 l 1
 221 260 l 1
 125 260 l 1
241 135 m 1
 241 240 l 1
 337 240 l 1
 337 135 l 1
 241 135 l 1
356 10 m 1
 356 115 l 1
 452 115 l 1
 452 10 l 1
 356 10 l 1
EndSplineSet
EndChar

StartChar: equal
Encoding: 61 61 29
Width: 578
Flags: HW
LayerCount: 2
Back
Fore
SplineSet
10 510 m 1
 10 615 l 1
 106 615 l 1
 106 510 l 1
 10 510 l 1
125 510 m 1
 125 615 l 1
 221 615 l 1
 221 510 l 1
 125 510 l 1
241 510 m 1
 241 615 l 1
 337 615 l 1
 337 510 l 1
 241 510 l 1
356 510 m 1
 356 615 l 1
 452 615 l 1
 452 510 l 1
 356 510 l 1
472 510 m 1
 472 615 l 1
 568 615 l 1
 568 510 l 1
 472 510 l 1
10 260 m 1
 10 365 l 1
 106 365 l 1
 106 260 l 1
 10 260 l 1
125 260 m 1
 125 365 l 1
 221 365 l 1
 221 260 l 1
 125 260 l 1
241 260 m 1
 241 365 l 1
 337 365 l 1
 337 260 l 1
 241 260 l 1
356 260 m 1
 356 365 l 1
 452 365 l 1
 452 260 l 1
 356 260 l 1
472 260 m 1
 472 365 l 1
 568 365 l 1
 568 260 l 1
 472 260 l 1
EndSplineSet
EndChar

StartChar: greater
Encoding: 62 62 30
Width: 578
Flags: HW
LayerCount: 2
Back
Fore
SplineSet
125 760 m 1
 125 865 l 1
 221 865 l 1
 221 760 l 1
 125 760 l 1
241 635 m 1
 241 740 l 1
 337 740 l 1
 337 635 l 1
 241 635 l 1
356 510 m 1
 356 615 l 1
 452 615 l 1
 452 510 l 1
 356 510 l 1
472 385 m 1
 472 490 l 1
 568 490 l 1
 568 385 l 1
 472 385 l 1
356 260 m 1
 356 365 l 1
 452 365 l 1
 452 260 l 1
 356 260 l 1
241 135 m 1
 241 240 l 1
 337 240 l 1
 337 135 l 1
 241 135 l 1
125 10 m 1
 125 115 l 1
 221 115 l 1
 221 10 l 1
 125 10 l 1
EndSplineSet
EndChar

StartChar: question
Encoding: 63 63 31
Width: 578
Flags: HW
LayerCount: 2
Back
Fore
SplineSet
125 760 m 1
 125 865 l 1
 221 865 l 1
 221 760 l 1
 125 760 l 1
241 760 m 1
 241 865 l 1
 337 865 l 1
 337 760 l 1
 241 760 l 1
356 760 m 1
 356 865 l 1
 452 865 l 1
 452 760 l 1
 356 760 l 1
10 635 m 1
 10 740 l 1
 106 740 l 1
 106 635 l 1
 10 635 l 1
472 635 m 1
 472 740 l 1
 568 740 l 1
 568 635 l 1
 472 635 l 1
472 510 m 1
 472 615 l 1
 568 615 l 1
 568 510 l 1
 472 510 l 1
356 385 m 1
 356 490 l 1
 452 490 l 1
 452 385 l 1
 356 385 l 1
241 260 m 1
 241 365 l 1
 337 365 l 1
 337 260 l 1
 241 260 l 1
241 10 m 1
 241 115 l 1
 337 115 l 1
 337 10 l 1
 241 10 l 1
EndSplineSet
EndChar

StartChar: at
Encoding: 64 64 32
Width: 578
Flags: HW
LayerCount: 2
Back
Fore
SplineSet
125 760 m 1
 125 865 l 1
 221 865 l 1
 221 760 l 1
 125 760 l 1
241 760 m 1
 241 865 l 1
 337 865 l 1
 337 760 l 1
 241 760 l 1
356 760 m 1
 356 865 l 1
 452 865 l 1
 452 760 l 1
 356 760 l 1
10 635 m 1
 10 740 l 1
 106 740 l 1
 106 635 l 1
 10 635 l 1
472 635 m 1
 472 740 l 1
 568 740 l 1
 568 635 l 1
 472 635 l 1
472 510 m 1
 472 615 l 1
 568 615 l 1
 568 510 l 1
 472 510 l 1
125 385 m 1
 125 490 l 1
 221 490 l 1
 221 385 l 1
 125 385 l 1
241 385 m 1
 241 490 l 1
 337 490 l 1
 337 385 l 1
 241 385 l 1
472 385 m 1
 472 490 l 1
 568 490 l 1
 568 385 l 1
 472 385 l 1
10 260 m 1
 10 365 l 1
 106 365 l 1
 106 260 l 1
 10 260 l 1
241 260 m 1
 241 365 l 1
 337 365 l 1
 337 260 l 1
 241 260 l 1
472 260 m 1
 472 365 l 1
 568 365 l 1
 568 260 l 1
 472 260 l 1
10 135 m 1
 10 240 l 1
 106 240 l 1
 106 135 l 1
 10 135 l 1
241 135 m 1
 241 240 l 1
 337 240 l 1
 337 135 l 1
 241 135 l 1
472 135 m 1
 472 240 l 1
 568 240 l 1
 568 135 l 1
 472 135 l 1
125 10 m 1
 125 115 l 1
 221 115 l 1
 221 10 l 1
 125 10 l 1
241 10 m 1
 241 115 l 1
 337 115 l 1
 337 10 l 1
 241 10 l 1
356 10 m 1
 356 115 l 1
 452 115 l 1
 452 10 l 1
 356 10 l 1
EndSplineSet
EndChar

StartChar: A
Encoding: 65 65 33
Width: 578
Flags: HW
LayerCount: 2
Back
Fore
SplineSet
125 760 m 1
 125 865 l 1
 221 865 l 1
 221 760 l 1
 125 760 l 1
241 760 m 1
 241 865 l 1
 337 865 l 1
 337 760 l 1
 241 760 l 1
356 760 m 1
 356 865 l 1
 452 865 l 1
 452 760 l 1
 356 760 l 1
10 635 m 1
 10 740 l 1
 106 740 l 1
 106 635 l 1
 10 635 l 1
472 635 m 1
 472 740 l 1
 568 740 l 1
 568 635 l 1
 472 635 l 1
10 510 m 1
 10 615 l 1
 106 615 l 1
 106 510 l 1
 10 510 l 1
472 510 m 1
 472 615 l 1
 568 615 l 1
 568 510 l 1
 472 510 l 1
10 385 m 1
 10 490 l 1
 106 490 l 1
 106 385 l 1
 10 385 l 1
472 385 m 1
 472 490 l 1
 568 490 l 1
 568 385 l 1
 472 385 l 1
10 260 m 1
 10 365 l 1
 106 365 l 1
 106 260 l 1
 10 260 l 1
125 260 m 1
 125 365 l 1
 221 365 l 1
 221 260 l 1
 125 260 l 1
241 260 m 1
 241 365 l 1
 337 365 l 1
 337 260 l 1
 241 260 l 1
356 260 m 1
 356 365 l 1
 452 365 l 1
 452 260 l 1
 356 260 l 1
472 260 m 1
 472 365 l 1
 568 365 l 1
 568 260 l 1
 472 260 l 1
10 135 m 1
 10 240 l 1
 106 240 l 1
 106 135 l 1
 10 135 l 1
472 135 m 1
 472 240 l 1
 568 240 l 1
 568 135 l 1
 472 135 l 1
10 10 m 1
 10 115 l 1
 106 115 l 1
 106 10 l 1
 10 10 l 1
472 10 m 1
 472 115 l 1
 568 115 l 1
 568 10 l 1
 472 10 l 1
EndSplineSet
EndChar

StartChar: B
Encoding: 66 66 34
Width: 578
Flags: HW
LayerCount: 2
Back
Fore
SplineSet
10 760 m 1
 10 865 l 1
 106 865 l 1
 106 760 l 1
 10 760 l 1
125 760 m 1
 125 865 l 1
 221 865 l 1
 221 760 l 1
 125 760 l 1
241 760 m 1
 241 865 l 1
 337 865 l 1
 337 760 l 1
 241 760 l 1
356 760 m 1
 356 865 l 1
 452 865 l 1
 452 760 l 1
 356 760 l 1
10 635 m 1
 10 740 l 1
 106 740 l 1
 106 635 l 1
 10 635 l 1
472 635 m 1
 472 740 l 1
 568 740 l 1
 568 635 l 1
 472 635 l 1
10 510 m 1
 10 615 l 1
 106 615 l 1
 106 510 l 1
 10 510 l 1
472 510 m 1
 472 615 l 1
 568 615 l 1
 568 510 l 1
 472 510 l 1
10 385 m 1
 10 490 l 1
 106 490 l 1
 106 385 l 1
 10 385 l 1
125 385 m 1
 125 490 l 1
 221 490 l 1
 221 385 l 1
 125 385 l 1
241 385 m 1
 241 490 l 1
 337 490 l 1
 337 385 l 1
 241 385 l 1
356 385 m 1
 356 490 l 1
 452 490 l 1
 452 385 l 1
 356 385 l 1
10 260 m 1
 10 365 l 1
 106 365 l 1
 106 260 l 1
 10 260 l 1
472 260 m 1
 472 365 l 1
 568 365 l 1
 568 260 l 1
 472 260 l 1
10 135 m 1
 10 240 l 1
 106 240 l 1
 106 135 l 1
 10 135 l 1
472 135 m 1
 472 240 l 1
 568 240 l 1
 568 135 l 1
 472 135 l 1
10 10 m 1
 10 115 l 1
 106 115 l 1
 106 10 l 1
 10 10 l 1
125 10 m 1
 125 115 l 1
 221 115 l 1
 221 10 l 1
 125 10 l 1
241 10 m 1
 241 115 l 1
 337 115 l 1
 337 10 l 1
 241 10 l 1
356 10 m 1
 356 115 l 1
 452 115 l 1
 452 10 l 1
 356 10 l 1
EndSplineSet
EndChar

StartChar: C
Encoding: 67 67 35
Width: 578
Flags: HW
LayerCount: 2
Back
Fore
SplineSet
125 760 m 1
 125 865 l 1
 221 865 l 1
 221 760 l 1
 125 760 l 1
241 760 m 1
 241 865 l 1
 337 865 l 1
 337 760 l 1
 241 760 l 1
356 760 m 1
 356 865 l 1
 452 865 l 1
 452 760 l 1
 356 760 l 1
10 635 m 1
 10 740 l 1
 106 740 l 1
 106 635 l 1
 10 635 l 1
472 635 m 1
 472 740 l 1
 568 740 l 1
 568 635 l 1
 472 635 l 1
10 510 m 1
 10 615 l 1
 106 615 l 1
 106 510 l 1
 10 510 l 1
10 385 m 1
 10 490 l 1
 106 490 l 1
 106 385 l 1
 10 385 l 1
10 260 m 1
 10 365 l 1
 106 365 l 1
 106 260 l 1
 10 260 l 1
10 135 m 1
 10 240 l 1
 106 240 l 1
 106 135 l 1
 10 135 l 1
472 135 m 1
 472 240 l 1
 568 240 l 1
 568 135 l 1
 472 135 l 1
125 10 m 1
 125 115 l 1
 221 115 l 1
 221 10 l 1
 125 10 l 1
241 10 m 1
 241 115 l 1
 337 115 l 1
 337 10 l 1
 241 10 l 1
356 10 m 1
 356 115 l 1
 452 115 l 1
 452 10 l 1
 356 10 l 1
EndSplineSet
EndChar

StartChar: D
Encoding: 68 68 36
Width: 578
Flags: HW
LayerCount: 2
Back
Fore
SplineSet
10 760 m 1
 10 865 l 1
 106 865 l 1
 106 760 l 1
 10 760 l 1
125 760 m 1
 125 865 l 1
 221 865 l 1
 221 760 l 1
 125 760 l 1
241 760 m 1
 241 865 l 1
 337 865 l 1
 337 760 l 1
 241 760 l 1
10 635 m 1
 10 740 l 1
 106 740 l 1
 106 635 l 1
 10 635 l 1
356 635 m 1
 356 740 l 1
 452 740 l 1
 452 635 l 1
 356 635 l 1
10 510 m 1
 10 615 l 1
 106 615 l 1
 106 510 l 1
 10 510 l 1
472 510 m 1
 472 615 l 1
 568 615 l 1
 568 510 l 1
 472 510 l 1
10 385 m 1
 10 490 l 1
 106 490 l 1
 106 385 l 1
 10 385 l 1
472 385 m 1
 472 490 l 1
 568 490 l 1
 568 385 l 1
 472 385 l 1
10 260 m 1
 10 365 l 1
 106 365 l 1
 106 260 l 1
 10 260 l 1
472 260 m 1
 472 365 l 1
 568 365 l 1
 568 260 l 1
 472 260 l 1
10 135 m 1
 10 240 l 1
 106 240 l 1
 106 135 l 1
 10 135 l 1
356 135 m 1
 356 240 l 1
 452 240 l 1
 452 135 l 1
 356 135 l 1
10 10 m 1
 10 115 l 1
 106 115 l 1
 106 10 l 1
 10 10 l 1
125 10 m 1
 125 115 l 1
 221 115 l 1
 221 10 l 1
 125 10 l 1
241 10 m 1
 241 115 l 1
 337 115 l 1
 337 10 l 1
 241 10 l 1
EndSplineSet
EndChar

StartChar: E
Encoding: 69 69 37
Width: 578
Flags: HW
LayerCount: 2
Back
Fore
SplineSet
10 760 m 1
 10 865 l 1
 106 865 l 1
 106 760 l 1
 10 760 l 1
125 760 m 1
 125 865 l 1
 221 865 l 1
 221 760 l 1
 125 760 l 1
241 760 m 1
 241 865 l 1
 337 865 l 1
 337 760 l 1
 241 760 l 1
356 760 m 1
 356 865 l 1
 452 865 l 1
 452 760 l 1
 356 760 l 1
472 760 m 1
 472 865 l 1
 568 865 l 1
 568 760 l 1
 472 760 l 1
10 635 m 1
 10 740 l 1
 106 740 l 1
 106 635 l 1
 10 635 l 1
10 510 m 1
 10 615 l 1
 106 615 l 1
 106 510 l 1
 10 510 l 1
10 385 m 1
 10 490 l 1
 106 490 l 1
 106 385 l 1
 10 385 l 1
125 385 m 1
 125 490 l 1
 221 490 l 1
 221 385 l 1
 125 385 l 1
241 385 m 1
 241 490 l 1
 337 490 l 1
 337 385 l 1
 241 385 l 1
356 385 m 1
 356 490 l 1
 452 490 l 1
 452 385 l 1
 356 385 l 1
10 260 m 1
 10 365 l 1
 106 365 l 1
 106 260 l 1
 10 260 l 1
10 135 m 1
 10 240 l 1
 106 240 l 1
 106 135 l 1
 10 135 l 1
10 10 m 1
 10 115 l 1
 106 115 l 1
 106 10 l 1
 10 10 l 1
125 10 m 1
 125 115 l 1
 221 115 l 1
 221 10 l 1
 125 10 l 1
241 10 m 1
 241 115 l 1
 337 115 l 1
 337 10 l 1
 241 10 l 1
356 10 m 1
 356 115 l 1
 452 115 l 1
 452 10 l 1
 356 10 l 1
472 10 m 1
 472 115 l 1
 568 115 l 1
 568 10 l 1
 472 10 l 1
EndSplineSet
EndChar

StartChar: F
Encoding: 70 70 38
Width: 578
Flags: HW
LayerCount: 2
Back
Fore
SplineSet
10 760 m 1
 10 865 l 1
 106 865 l 1
 106 760 l 1
 10 760 l 1
125 760 m 1
 125 865 l 1
 221 865 l 1
 221 760 l 1
 125 760 l 1
241 760 m 1
 241 865 l 1
 337 865 l 1
 337 760 l 1
 241 760 l 1
356 760 m 1
 356 865 l 1
 452 865 l 1
 452 760 l 1
 356 760 l 1
472 760 m 1
 472 865 l 1
 568 865 l 1
 568 760 l 1
 472 760 l 1
10 635 m 1
 10 740 l 1
 106 740 l 1
 106 635 l 1
 10 635 l 1
10 510 m 1
 10 615 l 1
 106 615 l 1
 106 510 l 1
 10 510 l 1
10 385 m 1
 10 490 l 1
 106 490 l 1
 106 385 l 1
 10 385 l 1
125 385 m 1
 125 490 l 1
 221 490 l 1
 221 385 l 1
 125 385 l 1
241 385 m 1
 241 490 l 1
 337 490 l 1
 337 385 l 1
 241 385 l 1
356 385 m 1
 356 490 l 1
 452 490 l 1
 452 385 l 1
 356 385 l 1
10 260 m 1
 10 365 l 1
 106 365 l 1
 106 260 l 1
 10 260 l 1
10 135 m 1
 10 240 l 1
 106 240 l 1
 106 135 l 1
 10 135 l 1
10 10 m 1
 10 115 l 1
 106 115 l 1
 106 10 l 1
 10 10 l 1
EndSplineSet
EndChar

StartChar: G
Encoding: 71 71 39
Width: 578
Flags: HW
LayerCount: 2
Back
Fore
SplineSet
125 760 m 1
 125 865 l 1
 221 865 l 1
 221 760 l 1
 125 760 l 1
241 760 m 1
 241 865 l 1
 337 865 l 1
 337 760 l 1
 241 760 l 1
356 760 m 1
 356 865 l 1
 452 865 l 1
 452 760 l 1
 356 760 l 1
10 635 m 1
 10 740 l 1
 106 740 l 1
 106 635 l 1
 10 635 l 1
472 635 m 1
 472 740 l 1
 568 740 l 1
 568 635 l 1
 472 635 l 1
10 510 m 1
 10 615 l 1
 106 615 l 1
 106 510 l 1
 10 510 l 1
10 385 m 1
 10 490 l 1
 106 490 l 1
 106 385 l 1
 10 385 l 1
241 385 m 1
 241 490 l 1
 337 490 l 1
 337 385 l 1
 241 385 l 1
356 385 m 1
 356 490 l 1
 452 490 l 1
 452 385 l 1
 356 385 l 1
472 385 m 1
 472 490 l 1
 568 490 l 1
 568 385 l 1
 472 385 l 1
10 260 m 1
 10 365 l 1
 106 365 l 1
 106 260 l 1
 10 260 l 1
472 260 m 1
 472 365 l 1
 568 365 l 1
 568 260 l 1
 472 260 l 1
10 135 m 1
 10 240 l 1
 106 240 l 1
 106 135 l 1
 10 135 l 1
472 135 m 1
 472 240 l 1
 568 240 l 1
 568 135 l 1
 472 135 l 1
125 10 m 1
 125 115 l 1
 221 115 l 1
 221 10 l 1
 125 10 l 1
241 10 m 1
 241 115 l 1
 337 115 l 1
 337 10 l 1
 241 10 l 1
356 10 m 1
 356 115 l 1
 452 115 l 1
 452 10 l 1
 356 10 l 1
472 10 m 1
 472 115 l 1
 568 115 l 1
 568 10 l 1
 472 10 l 1
EndSplineSet
EndChar

StartChar: H
Encoding: 72 72 40
Width: 578
Flags: HW
LayerCount: 2
Back
Fore
SplineSet
10 760 m 1
 10 865 l 1
 106 865 l 1
 106 760 l 1
 10 760 l 1
472 760 m 1
 472 865 l 1
 568 865 l 1
 568 760 l 1
 472 760 l 1
10 635 m 1
 10 740 l 1
 106 740 l 1
 106 635 l 1
 10 635 l 1
472 635 m 1
 472 740 l 1
 568 740 l 1
 568 635 l 1
 472 635 l 1
10 510 m 1
 10 615 l 1
 106 615 l 1
 106 510 l 1
 10 510 l 1
472 510 m 1
 472 615 l 1
 568 615 l 1
 568 510 l 1
 472 510 l 1
10 385 m 1
 10 490 l 1
 106 490 l 1
 106 385 l 1
 10 385 l 1
125 385 m 1
 125 490 l 1
 221 490 l 1
 221 385 l 1
 125 385 l 1
241 385 m 1
 241 490 l 1
 337 490 l 1
 337 385 l 1
 241 385 l 1
356 385 m 1
 356 490 l 1
 452 490 l 1
 452 385 l 1
 356 385 l 1
472 385 m 1
 472 490 l 1
 568 490 l 1
 568 385 l 1
 472 385 l 1
10 260 m 1
 10 365 l 1
 106 365 l 1
 106 260 l 1
 10 260 l 1
472 260 m 1
 472 365 l 1
 568 365 l 1
 568 260 l 1
 472 260 l 1
10 135 m 1
 10 240 l 1
 106 240 l 1
 106 135 l 1
 10 135 l 1
472 135 m 1
 472 240 l 1
 568 240 l 1
 568 135 l 1
 472 135 l 1
10 10 m 1
 10 115 l 1
 106 115 l 1
 106 10 l 1
 10 10 l 1
472 10 m 1
 472 115 l 1
 568 115 l 1
 568 10 l 1
 472 10 l 1
EndSplineSet
EndChar

StartChar: I
Encoding: 73 73 41
Width: 578
Flags: HW
LayerCount: 2
Back
Fore
SplineSet
125 760 m 1
 125 865 l 1
 221 865 l 1
 221 760 l 1
 125 760 l 1
241 760 m 1
 241 865 l 1
 337 865 l 1
 337 760 l 1
 241 760 l 1
356 760 m 1
 356 865 l 1
 452 865 l 1
 452 760 l 1
 356 760 l 1
241 635 m 1
 241 740 l 1
 337 740 l 1
 337 635 l 1
 241 635 l 1
241 510 m 1
 241 615 l 1
 337 615 l 1
 337 510 l 1
 241 510 l 1
241 385 m 1
 241 490 l 1
 337 490 l 1
 337 385 l 1
 241 385 l 1
241 260 m 1
 241 365 l 1
 337 365 l 1
 337 260 l 1
 241 260 l 1
241 135 m 1
 241 240 l 1
 337 240 l 1
 337 135 l 1
 241 135 l 1
125 10 m 1
 125 115 l 1
 221 115 l 1
 221 10 l 1
 125 10 l 1
241 10 m 1
 241 115 l 1
 337 115 l 1
 337 10 l 1
 241 10 l 1
356 10 m 1
 356 115 l 1
 452 115 l 1
 452 10 l 1
 356 10 l 1
EndSplineSet
EndChar

StartChar: J
Encoding: 74 74 42
Width: 578
Flags: HW
LayerCount: 2
Back
Fore
SplineSet
241 760 m 1
 241 865 l 1
 337 865 l 1
 337 760 l 1
 241 760 l 1
356 760 m 1
 356 865 l 1
 452 865 l 1
 452 760 l 1
 356 760 l 1
472 760 m 1
 472 865 l 1
 568 865 l 1
 568 760 l 1
 472 760 l 1
356 635 m 1
 356 740 l 1
 452 740 l 1
 452 635 l 1
 356 635 l 1
356 510 m 1
 356 615 l 1
 452 615 l 1
 452 510 l 1
 356 510 l 1
356 385 m 1
 356 490 l 1
 452 490 l 1
 452 385 l 1
 356 385 l 1
356 260 m 1
 356 365 l 1
 452 365 l 1
 452 260 l 1
 356 260 l 1
10 135 m 1
 10 240 l 1
 106 240 l 1
 106 135 l 1
 10 135 l 1
356 135 m 1
 356 240 l 1
 452 240 l 1
 452 135 l 1
 356 135 l 1
125 10 m 1
 125 115 l 1
 221 115 l 1
 221 10 l 1
 125 10 l 1
241 10 m 1
 241 115 l 1
 337 115 l 1
 337 10 l 1
 241 10 l 1
EndSplineSet
EndChar

StartChar: K
Encoding: 75 75 43
Width: 578
Flags: HW
LayerCount: 2
Back
Fore
SplineSet
10 760 m 1
 10 865 l 1
 106 865 l 1
 106 760 l 1
 10 760 l 1
472 760 m 1
 472 865 l 1
 568 865 l 1
 568 760 l 1
 472 760 l 1
10 635 m 1
 10 740 l 1
 106 740 l 1
 106 635 l 1
 10 635 l 1
356 635 m 1
 356 740 l 1
 452 740 l 1
 452 635 l 1
 356 635 l 1
10 510 m 1
 10 615 l 1
 106 615 l 1
 106 510 l 1
 10 510 l 1
241 510 m 1
 241 615 l 1
 337 615 l 1
 337 510 l 1
 241 510 l 1
10 385 m 1
 10 490 l 1
 106 490 l 1
 106 385 l 1
 10 385 l 1
125 385 m 1
 125 490 l 1
 221 490 l 1
 221 385 l 1
 125 385 l 1
10 260 m 1
 10 365 l 1
 106 365 l 1
 106 260 l 1
 10 260 l 1
241 260 m 1
 241 365 l 1
 337 365 l 1
 337 260 l 1
 241 260 l 1
10 135 m 1
 10 240 l 1
 106 240 l 1
 106 135 l 1
 10 135 l 1
356 135 m 1
 356 240 l 1
 452 240 l 1
 452 135 l 1
 356 135 l 1
10 10 m 1
 10 115 l 1
 106 115 l 1
 106 10 l 1
 10 10 l 1
472 10 m 1
 472 115 l 1
 568 115 l 1
 568 10 l 1
 472 10 l 1
EndSplineSet
EndChar

StartChar: L
Encoding: 76 76 44
Width: 578
Flags: HW
LayerCount: 2
Back
Fore
SplineSet
10 760 m 1
 10 865 l 1
 106 865 l 1
 106 760 l 1
 10 760 l 1
10 635 m 1
 10 740 l 1
 106 740 l 1
 106 635 l 1
 10 635 l 1
10 510 m 1
 10 615 l 1
 106 615 l 1
 106 510 l 1
 10 510 l 1
10 385 m 1
 10 490 l 1
 106 490 l 1
 106 385 l 1
 10 385 l 1
10 260 m 1
 10 365 l 1
 106 365 l 1
 106 260 l 1
 10 260 l 1
10 135 m 1
 10 240 l 1
 106 240 l 1
 106 135 l 1
 10 135 l 1
10 10 m 1
 10 115 l 1
 106 115 l 1
 106 10 l 1
 10 10 l 1
125 10 m 1
 125 115 l 1
 221 115 l 1
 221 10 l 1
 125 10 l 1
241 10 m 1
 241 115 l 1
 337 115 l 1
 337 10 l 1
 241 10 l 1
356 10 m 1
 356 115 l 1
 452 115 l 1
 452 10 l 1
 356 10 l 1
472 10 m 1
 472 115 l 1
 568 115 l 1
 568 10 l 1
 472 10 l 1
EndSplineSet
EndChar

StartChar: M
Encoding: 77 77 45
Width: 578
Flags: HW
LayerCount: 2
Back
Fore
SplineSet
10 760 m 1
 10 865 l 1
 106 865 l 1
 106 760 l 1
 10 760 l 1
472 760 m 1
 472 865 l 1
 568 865 l 1
 568 760 l 1
 472 760 l 1
10 635 m 1
 10 740 l 1
 106 740 l 1
 106 635 l 1
 10 635 l 1
125 635 m 1
 125 740 l 1
 221 740 l 1
 221 635 l 1
 125 635 l 1
356 635 m 1
 356 740 l 1
 452 740 l 1
 452 635 l 1
 356 635 l 1
472 635 m 1
 472 740 l 1
 568 740 l 1
 568 635 l 1
 472 635 l 1
10 510 m 1
 10 615 l 1
 106 615 l 1
 106 510 l 1
 10 510 l 1
241 510 m 1
 241 615 l 1
 337 615 l 1
 337 510 l 1
 241 510 l 1
472 510 m 1
 472 615 l 1
 568 615 l 1
 568 510 l 1
 472 510 l 1
10 385 m 1
 10 490 l 1
 106 490 l 1
 106 385 l 1
 10 385 l 1
241 385 m 1
 241 490 l 1
 337 490 l 1
 337 385 l 1
 241 385 l 1
472 385 m 1
 472 490 l 1
 568 490 l 1
 568 385 l 1
 472 385 l 1
10 260 m 1
 10 365 l 1
 106 365 l 1
 106 260 l 1
 10 260 l 1
472 260 m 1
 472 365 l 1
 568 365 l 1
 568 260 l 1
 472 260 l 1
10 135 m 1
 10 240 l 1
 106 240 l 1
 106 135 l 1
 10 135 l 1
472 135 m 1
 472 240 l 1
 568 240 l 1
 568 135 l 1
 472 135 l 1
10 10 m 1
 10 115 l 1
 106 115 l 1
 106 10 l 1
 10 10 l 1
472 10 m 1
 472 115 l 1
 568 115 l 1
 568 10 l 1
 472 10 l 1
EndSplineSet
EndChar

StartChar: N
Encoding: 78 78 46
Width: 578
Flags: HW
LayerCount: 2
Back
Fore
SplineSet
10 760 m 1
 10 865 l 1
 106 865 l 1
 106 760 l 1
 10 760 l 1
472 760 m 1
 472 865 l 1
 568 865 l 1
 568 760 l 1
 472 760 l 1
10 635 m 1
 10 740 l 1
 106 740 l 1
 106 635 l 1
 10 635 l 1
472 635 m 1
 472 740 l 1
 568 740 l 1
 568 635 l 1
 472 635 l 1
10 510 m 1
 10 615 l 1
 106 615 l 1
 106 510 l 1
 10 510 l 1
125 510 m 1
 125 615 l 1
 221 615 l 1
 221 510 l 1
 125 510 l 1
472 510 m 1
 472 615 l 1
 568 615 l 1
 568 510 l 1
 472 510 l 1
10 385 m 1
 10 490 l 1
 106 490 l 1
 106 385 l 1
 10 385 l 1
241 385 m 1
 241 490 l 1
 337 490 l 1
 337 385 l 1
 241 385 l 1
472 385 m 1
 472 490 l 1
 568 490 l 1
 568 385 l 1
 472 385 l 1
10 260 m 1
 10 365 l 1
 106 365 l 1
 106 260 l 1
 10 260 l 1
356 260 m 1
 356 365 l 1
 452 365 l 1
 452 260 l 1
 356 260 l 1
472 260 m 1
 472 365 l 1
 568 365 l 1
 568 260 l 1
 472 260 l 1
10 135 m 1
 10 240 l 1
 106 240 l 1
 106 135 l 1
 10 135 l 1
472 135 m 1
 472 240 l 1
 568 240 l 1
 568 135 l 1
 472 135 l 1
10 10 m 1
 10 115 l 1
 106 115 l 1
 106 10 l 1
 10 10 l 1
472 10 m 1
 472 115 l 1
 568 115 l 1
 568 10 l 1
 472 10 l 1
EndSplineSet
EndChar

StartChar: O
Encoding: 79 79 47
Width: 578
Flags: HW
LayerCount: 2
Back
Fore
SplineSet
125 760 m 1
 125 865 l 1
 221 865 l 1
 221 760 l 1
 125 760 l 1
241 760 m 1
 241 865 l 1
 337 865 l 1
 337 760 l 1
 241 760 l 1
356 760 m 1
 356 865 l 1
 452 865 l 1
 452 760 l 1
 356 760 l 1
10 635 m 1
 10 740 l 1
 106 740 l 1
 106 635 l 1
 10 635 l 1
472 635 m 1
 472 740 l 1
 568 740 l 1
 568 635 l 1
 472 635 l 1
10 510 m 1
 10 615 l 1
 106 615 l 1
 106 510 l 1
 10 510 l 1
472 510 m 1
 472 615 l 1
 568 615 l 1
 568 510 l 1
 472 510 l 1
10 385 m 1
 10 490 l 1
 106 490 l 1
 106 385 l 1
 10 385 l 1
472 385 m 1
 472 490 l 1
 568 490 l 1
 568 385 l 1
 472 385 l 1
10 260 m 1
 10 365 l 1
 106 365 l 1
 106 260 l 1
 10 260 l 1
472 260 m 1
 472 365 l 1
 568 365 l 1
 568 260 l 1
 472 260 l 1
10 135 m 1
 10 240 l 1
 106 240 l 1
 106 135 l 1
 10 135 l 1
472 135 m 1
 472 240 l 1
 568 240 l 1
 568 135 l 1
 472 135 l 1
125 10 m 1
 125 115 l 1
 221 115 l 1
 221 10 l 1
 125 10 l 1
241 10 m 1
 241 115 l 1
 337 115 l 1
 337 10 l 1
 241 10 l 1
356 10 m 1
 356 115 l 1
 452 115 l 1
 452 10 l 1
 356 10 l 1
EndSplineSet
EndChar

StartChar: P
Encoding: 80 80 48
Width: 578
Flags: HW
LayerCount: 2
Back
Fore
SplineSet
10 760 m 1
 10 865 l 1
 106 865 l 1
 106 760 l 1
 10 760 l 1
125 760 m 1
 125 865 l 1
 221 865 l 1
 221 760 l 1
 125 760 l 1
241 760 m 1
 241 865 l 1
 337 865 l 1
 337 760 l 1
 241 760 l 1
356 760 m 1
 356 865 l 1
 452 865 l 1
 452 760 l 1
 356 760 l 1
10 635 m 1
 10 740 l 1
 106 740 l 1
 106 635 l 1
 10 635 l 1
472 635 m 1
 472 740 l 1
 568 740 l 1
 568 635 l 1
 472 635 l 1
10 510 m 1
 10 615 l 1
 106 615 l 1
 106 510 l 1
 10 510 l 1
472 510 m 1
 472 615 l 1
 568 615 l 1
 568 510 l 1
 472 510 l 1
10 385 m 1
 10 490 l 1
 106 490 l 1
 106 385 l 1
 10 385 l 1
125 385 m 1
 125 490 l 1
 221 490 l 1
 221 385 l 1
 125 385 l 1
241 385 m 1
 241 490 l 1
 337 490 l 1
 337 385 l 1
 241 385 l 1
356 385 m 1
 356 490 l 1
 452 490 l 1
 452 385 l 1
 356 385 l 1
10 260 m 1
 10 365 l 1
 106 365 l 1
 106 260 l 1
 10 260 l 1
10 135 m 1
 10 240 l 1
 106 240 l 1
 106 135 l 1
 10 135 l 1
10 10 m 1
 10 115 l 1
 106 115 l 1
 106 10 l 1
 10 10 l 1
EndSplineSet
EndChar

StartChar: Q
Encoding: 81 81 49
Width: 578
Flags: HW
LayerCount: 2
Back
Fore
SplineSet
125 760 m 1
 125 865 l 1
 221 865 l 1
 221 760 l 1
 125 760 l 1
241 760 m 1
 241 865 l 1
 337 865 l 1
 337 760 l 1
 241 760 l 1
356 760 m 1
 356 865 l 1
 452 865 l 1
 452 760 l 1
 356 760 l 1
10 635 m 1
 10 740 l 1
 106 740 l 1
 106 635 l 1
 10 635 l 1
472 635 m 1
 472 740 l 1
 568 740 l 1
 568 635 l 1
 472 635 l 1
10 510 m 1
 10 615 l 1
 106 615 l 1
 106 510 l 1
 10 510 l 1
472 510 m 1
 472 615 l 1
 568 615 l 1
 568 510 l 1
 472 510 l 1
10 385 m 1
 10 490 l 1
 106 490 l 1
 106 385 l 1
 10 385 l 1
472 385 m 1
 472 490 l 1
 568 490 l 1
 568 385 l 1
 472 385 l 1
10 260 m 1
 10 365 l 1
 106 365 l 1
 106 260 l 1
 10 260 l 1
241 260 m 1
 241 365 l 1
 337 365 l 1
 337 260 l 1
 241 260 l 1
472 260 m 1
 472 365 l 1
 568 365 l 1
 568 260 l 1
 472 260 l 1
10 135 m 1
 10 240 l 1
 106 240 l 1
 106 135 l 1
 10 135 l 1
356 135 m 1
 356 240 l 1
 452 240 l 1
 452 135 l 1
 356 135 l 1
125 10 m 1
 125 115 l 1
 221 115 l 1
 221 10 l 1
 125 10 l 1
241 10 m 1
 241 115 l 1
 337 115 l 1
 337 10 l 1
 241 10 l 1
472 10 m 1
 472 115 l 1
 568 115 l 1
 568 10 l 1
 472 10 l 1
EndSplineSet
EndChar

StartChar: R
Encoding: 82 82 50
Width: 578
Flags: HW
LayerCount: 2
Back
Fore
SplineSet
10 760 m 1
 10 865 l 1
 106 865 l 1
 106 760 l 1
 10 760 l 1
125 760 m 1
 125 865 l 1
 221 865 l 1
 221 760 l 1
 125 760 l 1
241 760 m 1
 241 865 l 1
 337 865 l 1
 337 760 l 1
 241 760 l 1
356 760 m 1
 356 865 l 1
 452 865 l 1
 452 760 l 1
 356 760 l 1
10 635 m 1
 10 740 l 1
 106 740 l 1
 106 635 l 1
 10 635 l 1
472 635 m 1
 472 740 l 1
 568 740 l 1
 568 635 l 1
 472 635 l 1
10 510 m 1
 10 615 l 1
 106 615 l 1
 106 510 l 1
 10 510 l 1
472 510 m 1
 472 615 l 1
 568 615 l 1
 568 510 l 1
 472 510 l 1
10 385 m 1
 10 490 l 1
 106 490 l 1
 106 385 l 1
 10 385 l 1
125 385 m 1
 125 490 l 1
 221 490 l 1
 221 385 l 1
 125 385 l 1
241 385 m 1
 241 490 l 1
 337 490 l 1
 337 385 l 1
 241 385 l 1
356 385 m 1
 356 490 l 1
 452 490 l 1
 452 385 l 1
 356 385 l 1
10 260 m 1
 10 365 l 1
 106 365 l 1
 106 260 l 1
 10 260 l 1
241 260 m 1
 241 365 l 1
 337 365 l 1
 337 260 l 1
 241 260 l 1
10 135 m 1
 10 240 l 1
 106 240 l 1
 106 135 l 1
 10 135 l 1
356 135 m 1
 356 240 l 1
 452 240 l 1
 452 135 l 1
 356 135 l 1
10 10 m 1
 10 115 l 1
 106 115 l 1
 106 10 l 1
 10 10 l 1
472 10 m 1
 472 115 l 1
 568 115 l 1
 568 10 l 1
 472 10 l 1
EndSplineSet
EndChar

StartChar: S
Encoding: 83 83 51
Width: 578
Flags: HW
LayerCount: 2
Back
Fore
SplineSet
125 760 m 1
 125 865 l 1
 221 865 l 1
 221 760 l 1
 125 760 l 1
241 760 m 1
 241 865 l 1
 337 865 l 1
 337 760 l 1
 241 760 l 1
356 760 m 1
 356 865 l 1
 452 865 l 1
 452 760 l 1
 356 760 l 1
472 760 m 1
 472 865 l 1
 568 865 l 1
 568 760 l 1
 472 760 l 1
10 635 m 1
 10 740 l 1
 106 740 l 1
 106 635 l 1
 10 635 l 1
10 510 m 1
 10 615 l 1
 106 615 l 1
 106 510 l 1
 10 510 l 1
125 385 m 1
 125 490 l 1
 221 490 l 1
 221 385 l 1
 125 385 l 1
241 385 m 1
 241 490 l 1
 337 490 l 1
 337 385 l 1
 241 385 l 1
356 385 m 1
 356 490 l 1
 452 490 l 1
 452 385 l 1
 356 385 l 1
472 260 m 1
 472 365 l 1
 568 365 l 1
 568 260 l 1
 472 260 l 1
472 135 m 1
 472 240 l 1
 568 240 l 1
 568 135 l 1
 472 135 l 1
10 10 m 1
 10 115 l 1
 106 115 l 1
 106 10 l 1
 10 10 l 1
125 10 m 1
 125 115 l 1
 221 115 l 1
 221 10 l 1
 125 10 l 1
241 10 m 1
 241 115 l 1
 337 115 l 1
 337 10 l 1
 241 10 l 1
356 10 m 1
 356 115 l 1
 452 115 l 1
 452 10 l 1
 356 10 l 1
EndSplineSet
EndChar

StartChar: T
Encoding: 84 84 52
Width: 578
Flags: HW
LayerCount: 2
Back
Fore
SplineSet
10 760 m 1
 10 865 l 1
 106 865 l 1
 106 760 l 1
 10 760 l 1
125 760 m 1
 125 865 l 1
 221 865 l 1
 221 760 l 1
 125 760 l 1
241 760 m 1
 241 865 l 1
 337 865 l 1
 337 760 l 1
 241 760 l 1
356 760 m 1
 356 865 l 1
 452 865 l 1
 452 760 l 1
 356 760 l 1
472 760 m 1
 472 865 l 1
 568 865 l 1
 568 760 l 1
 472 760 l 1
241 635 m 1
 241 740 l 1
 337 740 l 1
 337 635 l 1
 241 635 l 1
241 510 m 1
 241 615 l 1
 337 615 l 1
 337 510 l 1
 241 510 l 1
241 385 m 1
 241 490 l 1
 337 490 l 1
 337 385 l 1
 241 385 l 1
241 260 m 1
 241 365 l 1
 337 365 l 1
 337 260 l 1
 241 260 l 1
241 135 m 1
 241 240 l 1
 337 240 l 1
 337 135 l 1
 241 135 l 1
241 10 m 1
 241 115 l 1
 337 115 l 1
 337 10 l 1
 241 10 l 1
EndSplineSet
EndChar

StartChar: U
Encoding: 85 85 53
Width: 578
Flags: HW
LayerCount: 2
Back
Fore
SplineSet
10 760 m 1
 10 865 l 1
 106 865 l 1
 106 760 l 1
 10 760 l 1
472 760 m 1
 472 865 l 1
 568 865 l 1
 568 760 l 1
 472 760 l 1
10 635 m 1
 10 740 l 1
 106 740 l 1
 106 635 l 1
 10 635 l 1
472 635 m 1
 472 740 l 1
 568 740 l 1
 568 635 l 1
 472 635 l 1
10 510 m 1
 10 615 l 1
 106 615 l 1
 106 510 l 1
 10 510 l 1
472 510 m 1
 472 615 l 1
 568 615 l 1
 568 510 l 1
 472 510 l 1
10 385 m 1
 10 490 l 1
 106 490 l 1
 106 385 l 1
 10 385 l 1
472 385 m 1
 472 490 l 1
 568 490 l 1
 568 385 l 1
 472 385 l 1
10 260 m 1
 10 365 l 1
 106 365 l 1
 106 260 l 1
 10 260 l 1
472 260 m 1
 472 365 l 1
 568 365 l 1
 568 260 l 1
 472 260 l 1
10 135 m 1
 10 240 l 1
 106 240 l 1
 106 135 l 1
 10 135 l 1
472 135 m 1
 472 240 l 1
 568 240 l 1
 568 135 l 1
 472 135 l 1
125 10 m 1
 125 115 l 1
 221 115 l 1
 221 10 l 1
 125 10 l 1
241 10 m 1
 241 115 l 1
 337 115 l 1
 337 10 l 1
 241 10 l 1
356 10 m 1
 356 115 l 1
 452 115 l 1
 452 10 l 1
 356 10 l 1
EndSplineSet
EndChar

StartChar: V
Encoding: 86 86 54
Width: 578
Flags: HW
LayerCount: 2
Back
Fore
SplineSet
10 760 m 1
 10 865 l 1
 106 865 l 1
 106 760 l 1
 10 760 l 1
472 760 m 1
 472 865 l 1
 568 865 l 1
 568 760 l 1
 472 760 l 1
10 635 m 1
 10 740 l 1
 106 740 l 1
 106 635 l 1
 10 635 l 1
472 635 m 1
 472 740 l 1
 568 740 l 1
 568 635 l 1
 472 635 l 1
10 510 m 1
 10 615 l 1
 106 615 l 1
 106 510 l 1
 10 510 l 1
472 510 m 1
 472 615 l 1
 568 615 l 1
 568 510 l 1
 472 510 l 1
10 385 m 1
 10 490 l 1
 106 490 l 1
 106 385 l 1
 10 385 l 1
472 385 m 1
 472 490 l 1
 568 490 l 1
 568 385 l 1
 472 385 l 1
10 260 m 1
 10 365 l 1
 106 365 l 1
 106 260 l 1
 10 260 l 1
472 260 m 1
 472 365 l 1
 568 365 l 1
 568 260 l 1
 472 260 l 1
125 135 m 1
 125 240 l 1
 221 240 l 1
 221 135 l 1
 125 135 l 1
356 135 m 1
 356 240 l 1
 452 240 l 1
 452 135 l 1
 356 135 l 1
241 10 m 1
 241 115 l 1
 337 115 l 1
 337 10 l 1
 241 10 l 1
EndSplineSet
EndChar

StartChar: W
Encoding: 87 87 55
Width: 578
Flags: HW
LayerCount: 2
Back
Fore
SplineSet
10 760 m 1
 10 865 l 1
 106 865 l 1
 106 760 l 1
 10 760 l 1
472 760 m 1
 472 865 l 1
 568 865 l 1
 568 760 l 1
 472 760 l 1
10 635 m 1
 10 740 l 1
 106 740 l 1
 106 635 l 1
 10 635 l 1
472 635 m 1
 472 740 l 1
 568 740 l 1
 568 635 l 1
 472 635 l 1
10 510 m 1
 10 615 l 1
 106 615 l 1
 106 510 l 1
 10 510 l 1
472 510 m 1
 472 615 l 1
 568 615 l 1
 568 510 l 1
 472 510 l 1
10 385 m 1
 10 490 l 1
 106 490 l 1
 106 385 l 1
 10 385 l 1
241 385 m 1
 241 490 l 1
 337 490 l 1
 337 385 l 1
 241 385 l 1
472 385 m 1
 472 490 l 1
 568 490 l 1
 568 385 l 1
 472 385 l 1
10 260 m 1
 10 365 l 1
 106 365 l 1
 106 260 l 1
 10 260 l 1
241 260 m 1
 241 365 l 1
 337 365 l 1
 337 260 l 1
 241 260 l 1
472 260 m 1
 472 365 l 1
 568 365 l 1
 568 260 l 1
 472 260 l 1
10 135 m 1
 10 240 l 1
 106 240 l 1
 106 135 l 1
 10 135 l 1
241 135 m 1
 241 240 l 1
 337 240 l 1
 337 135 l 1
 241 135 l 1
472 135 m 1
 472 240 l 1
 568 240 l 1
 568 135 l 1
 472 135 l 1
125 10 m 1
 125 115 l 1
 221 115 l 1
 221 10 l 1
 125 10 l 1
356 10 m 1
 356 115 l 1
 452 115 l 1
 452 10 l 1
 356 10 l 1
EndSplineSet
EndChar

StartChar: X
Encoding: 88 88 56
Width: 578
Flags: HW
LayerCount: 2
Back
Fore
SplineSet
10 760 m 1
 10 865 l 1
 106 865 l 1
 106 760 l 1
 10 760 l 1
472 760 m 1
 472 865 l 1
 568 865 l 1
 568 760 l 1
 472 760 l 1
10 635 m 1
 10 740 l 1
 106 740 l 1
 106 635 l 1
 10 635 l 1
472 635 m 1
 472 740 l 1
 568 740 l 1
 568 635 l 1
 472 635 l 1
125 510 m 1
 125 615 l 1
 221 615 l 1
 221 510 l 1
 125 510 l 1
356 510 m 1
 356 615 l 1
 452 615 l 1
 452 510 l 1
 356 510 l 1
241 385 m 1
 241 490 l 1
 337 490 l 1
 337 385 l 1
 241 385 l 1
125 260 m 1
 125 365 l 1
 221 365 l 1
 221 260 l 1
 125 260 l 1
356 260 m 1
 356 365 l 1
 452 365 l 1
 452 260 l 1
 356 260 l 1
10 135 m 1
 10 240 l 1
 106 240 l 1
 106 135 l 1
 10 135 l 1
472 135 m 1
 472 240 l 1
 568 240 l 1
 568 135 l 1
 472 135 l 1
10 10 m 1
 10 115 l 1
 106 115 l 1
 106 10 l 1
 10 10 l 1
472 10 m 1
 472 115 l 1
 568 115 l 1
 568 10 l 1
 472 10 l 1
EndSplineSet
EndChar

StartChar: Y
Encoding: 89 89 57
Width: 578
Flags: HW
LayerCount: 2
Back
Fore
SplineSet
10 760 m 1
 10 865 l 1
 106 865 l 1
 106 760 l 1
 10 760 l 1
472 760 m 1
 472 865 l 1
 568 865 l 1
 568 760 l 1
 472 760 l 1
10 635 m 1
 10 740 l 1
 106 740 l 1
 106 635 l 1
 10 635 l 1
472 635 m 1
 472 740 l 1
 568 740 l 1
 568 635 l 1
 472 635 l 1
10 510 m 1
 10 615 l 1
 106 615 l 1
 106 510 l 1
 10 510 l 1
472 510 m 1
 472 615 l 1
 568 615 l 1
 568 510 l 1
 472 510 l 1
125 385 m 1
 125 490 l 1
 221 490 l 1
 221 385 l 1
 125 385 l 1
356 385 m 1
 356 490 l 1
 452 490 l 1
 452 385 l 1
 356 385 l 1
241 260 m 1
 241 365 l 1
 337 365 l 1
 337 260 l 1
 241 260 l 1
241 135 m 1
 241 240 l 1
 337 240 l 1
 337 135 l 1
 241 135 l 1
241 10 m 1
 241 115 l 1
 337 115 l 1
 337 10 l 1
 241 10 l 1
EndSplineSet
EndChar

StartChar: Z
Encoding: 90 90 58
Width: 578
Flags: HW
LayerCount: 2
Back
Fore
SplineSet
10 760 m 1
 10 865 l 1
 106 865 l 1
 106 760 l 1
 10 760 l 1
125 760 m 1
 125 865 l 1
 221 865 l 1
 221 760 l 1
 125 760 l 1
241 760 m 1
 241 865 l 1
 337 865 l 1
 337 760 l 1
 241 760 l 1
356 760 m 1
 356 865 l 1
 452 865 l 1
 452 760 l 1
 356 760 l 1
472 760 m 1
 472 865 l 1
 568 865 l 1
 568 760 l 1
 472 760 l 1
472 635 m 1
 472 740 l 1
 568 740 l 1
 568 635 l 1
 472 635 l 1
356 510 m 1
 356 615 l 1
 452 615 l 1
 452 510 l 1
 356 510 l 1
241 385 m 1
 241 490 l 1
 337 490 l 1
 337 385 l 1
 241 385 l 1
125 260 m 1
 125 365 l 1
 221 365 l 1
 221 260 l 1
 125 260 l 1
10 135 m 1
 10 240 l 1
 106 240 l 1
 106 135 l 1
 10 135 l 1
10 10 m 1
 10 115 l 1
 106 115 l 1
 106 10 l 1
 10 10 l 1
125 10 m 1
 125 115 l 1
 221 115 l 1
 221 10 l 1
 125 10 l 1
241 10 m 1
 241 115 l 1
 337 115 l 1
 337 10 l 1
 241 10 l 1
356 10 m 1
 356 115 l 1
 452 115 l 1
 452 10 l 1
 356 10 l 1
472 10 m 1
 472 115 l 1
 568 115 l 1
 568 10 l 1
 472 10 l 1
EndSplineSet
EndChar

StartChar: bracketleft
Encoding: 91 91 59
Width: 578
Flags: HW
LayerCount: 2
Back
Fore
SplineSet
125 760 m 1
 125 865 l 1
 221 865 l 1
 221 760 l 1
 125 760 l 1
241 760 m 1
 241 865 l 1
 337 865 l 1
 337 760 l 1
 241 760 l 1
356 760 m 1
 356 865 l 1
 452 865 l 1
 452 760 l 1
 356 760 l 1
125 635 m 1
 125 740 l 1
 221 740 l 1
 221 635 l 1
 125 635 l 1
125 510 m 1
 125 615 l 1
 221 615 l 1
 221 510 l 1
 125 510 l 1
125 385 m 1
 125 490 l 1
 221 490 l 1
 221 385 l 1
 125 385 l 1
125 260 m 1
 125 365 l 1
 221 365 l 1
 221 260 l 1
 125 260 l 1
125 135 m 1
 125 240 l 1
 221 240 l 1
 221 135 l 1
 125 135 l 1
125 10 m 1
 125 115 l 1
 221 115 l 1
 221 10 l 1
 125 10 l 1
241 10 m 1
 241 115 l 1
 337 115 l 1
 337 10 l 1
 241 10 l 1
356 10 m 1
 356 115 l 1
 452 115 l 1
 452 10 l 1
 356 10 l 1
EndSplineSet
EndChar

StartChar: backslash
Encoding: 92 92 60
Width: 578
Flags: HW
LayerCount: 2
Back
Fore
SplineSet
10 635 m 1
 10 740 l 1
 106 740 l 1
 106 635 l 1
 10 635 l 1
125 510 m 1
 125 615 l 1
 221 615 l 1
 221 510 l 1
 125 510 l 1
241 385 m 1
 241 490 l 1
 337 490 l 1
 337 385 l 1
 241 385 l 1
356 260 m 1
 356 365 l 1
 452 365 l 1
 452 260 l 1
 356 260 l 1
472 135 m 1
 472 240 l 1
 568 240 l 1
 568 135 l 1
 472 135 l 1
EndSplineSet
EndChar

StartChar: bracketright
Encoding: 93 93 61
Width: 578
Flags: HW
LayerCount: 2
Back
Fore
SplineSet
125 760 m 1
 125 865 l 1
 221 865 l 1
 221 760 l 1
 125 760 l 1
241 760 m 1
 241 865 l 1
 337 865 l 1
 337 760 l 1
 241 760 l 1
356 760 m 1
 356 865 l 1
 452 865 l 1
 452 760 l 1
 356 760 l 1
356 635 m 1
 356 740 l 1
 452 740 l 1
 452 635 l 1
 356 635 l 1
356 510 m 1
 356 615 l 1
 452 615 l 1
 452 510 l 1
 356 510 l 1
356 385 m 1
 356 490 l 1
 452 490 l 1
 452 385 l 1
 356 385 l 1
356 260 m 1
 356 365 l 1
 452 365 l 1
 452 260 l 1
 356 260 l 1
356 135 m 1
 356 240 l 1
 452 240 l 1
 452 135 l 1
 356 135 l 1
125 10 m 1
 125 115 l 1
 221 115 l 1
 221 10 l 1
 125 10 l 1
241 10 m 1
 241 115 l 1
 337 115 l 1
 337 10 l 1
 241 10 l 1
356 10 m 1
 356 115 l 1
 452 115 l 1
 452 10 l 1
 356 10 l 1
EndSplineSet
EndChar

StartChar: asciicircum
Encoding: 94 94 62
Width: 578
Flags: HW
LayerCount: 2
Back
Fore
SplineSet
241 760 m 1
 241 865 l 1
 337 865 l 1
 337 760 l 1
 241 760 l 1
125 635 m 1
 125 740 l 1
 221 740 l 1
 221 635 l 1
 125 635 l 1
356 635 m 1
 356 740 l 1
 452 740 l 1
 452 635 l 1
 356 635 l 1
10 510 m 1
 10 615 l 1
 106 615 l 1
 106 510 l 1
 10 510 l 1
472 510 m 1
 472 615 l 1
 568 615 l 1
 568 510 l 1
 472 510 l 1
EndSplineSet
EndChar

StartChar: underscore
Encoding: 95 95 63
Width: 578
Flags: HW
LayerCount: 2
Back
Fore
SplineSet
10 10 m 1
 10 115 l 1
 106 115 l 1
 106 10 l 1
 10 10 l 1
125 10 m 1
 125 115 l 1
 221 115 l 1
 221 10 l 1
 125 10 l 1
241 10 m 1
 241 115 l 1
 337 115 l 1
 337 10 l 1
 241 10 l 1
356 10 m 1
 356 115 l 1
 452 115 l 1
 452 10 l 1
 356 10 l 1
472 10 m 1
 472 115 l 1
 568 115 l 1
 568 10 l 1
 472 10 l 1
EndSplineSet
EndChar

StartChar: grave
Encoding: 96 96 64
Width: 578
Flags: HW
LayerCount: 2
Back
Fore
SplineSet
125 760 m 1
 125 865 l 1
 221 865 l 1
 221 760 l 1
 125 760 l 1
241 635 m 1
 241 740 l 1
 337 740 l 1
 337 635 l 1
 241 635 l 1
356 510 m 1
 356 615 l 1
 452 615 l 1
 452 510 l 1
 356 510 l 1
EndSplineSet
EndChar

StartChar: a
Encoding: 97 97 65
Width: 578
Flags: HW
LayerCount: 2
Back
Fore
SplineSet
125 510 m 1
 125 615 l 1
 221 615 l 1
 221 510 l 1
 125 510 l 1
241 510 m 1
 241 615 l 1
 337 615 l 1
 337 510 l 1
 241 510 l 1
356 510 m 1
 356 615 l 1
 452 615 l 1
 452 510 l 1
 356 510 l 1
472 385 m 1
 472 490 l 1
 568 490 l 1
 568 385 l 1
 472 385 l 1
125 260 m 1
 125 365 l 1
 221 365 l 1
 221 260 l 1
 125 260 l 1
241 260 m 1
 241 365 l 1
 337 365 l 1
 337 260 l 1
 241 260 l 1
356 260 m 1
 356 365 l 1
 452 365 l 1
 452 260 l 1
 356 260 l 1
472 260 m 1
 472 365 l 1
 568 365 l 1
 568 260 l 1
 472 260 l 1
10 135 m 1
 10 240 l 1
 106 240 l 1
 106 135 l 1
 10 135 l 1
472 135 m 1
 472 240 l 1
 568 240 l 1
 568 135 l 1
 472 135 l 1
125 10 m 1
 125 115 l 1
 221 115 l 1
 221 10 l 1
 125 10 l 1
241 10 m 1
 241 115 l 1
 337 115 l 1
 337 10 l 1
 241 10 l 1
356 10 m 1
 356 115 l 1
 452 115 l 1
 452 10 l 1
 356 10 l 1
472 10 m 1
 472 115 l 1
 568 115 l 1
 568 10 l 1
 472 10 l 1
EndSplineSet
EndChar

StartChar: b
Encoding: 98 98 66
Width: 578
Flags: HW
LayerCount: 2
Back
Fore
SplineSet
10 760 m 1
 10 865 l 1
 106 865 l 1
 106 760 l 1
 10 760 l 1
10 635 m 1
 10 740 l 1
 106 740 l 1
 106 635 l 1
 10 635 l 1
10 510 m 1
 10 615 l 1
 106 615 l 1
 106 510 l 1
 10 510 l 1
241 510 m 1
 241 615 l 1
 337 615 l 1
 337 510 l 1
 241 510 l 1
356 510 m 1
 356 615 l 1
 452 615 l 1
 452 510 l 1
 356 510 l 1
10 385 m 1
 10 490 l 1
 106 490 l 1
 106 385 l 1
 10 385 l 1
125 385 m 1
 125 490 l 1
 221 490 l 1
 221 385 l 1
 125 385 l 1
472 385 m 1
 472 490 l 1
 568 490 l 1
 568 385 l 1
 472 385 l 1
10 260 m 1
 10 365 l 1
 106 365 l 1
 106 260 l 1
 10 260 l 1
472 260 m 1
 472 365 l 1
 568 365 l 1
 568 260 l 1
 472 260 l 1
10 135 m 1
 10 240 l 1
 106 240 l 1
 106 135 l 1
 10 135 l 1
472 135 m 1
 472 240 l 1
 568 240 l 1
 568 135 l 1
 472 135 l 1
10 10 m 1
 10 115 l 1
 106 115 l 1
 106 10 l 1
 10 10 l 1
125 10 m 1
 125 115 l 1
 221 115 l 1
 221 10 l 1
 125 10 l 1
241 10 m 1
 241 115 l 1
 337 115 l 1
 337 10 l 1
 241 10 l 1
356 10 m 1
 356 115 l 1
 452 115 l 1
 452 10 l 1
 356 10 l 1
EndSplineSet
EndChar

StartChar: c
Encoding: 99 99 67
Width: 578
Flags: HW
LayerCount: 2
Back
Fore
SplineSet
125 510 m 1
 125 615 l 1
 221 615 l 1
 221 510 l 1
 125 510 l 1
241 510 m 1
 241 615 l 1
 337 615 l 1
 337 510 l 1
 241 510 l 1
356 510 m 1
 356 615 l 1
 452 615 l 1
 452 510 l 1
 356 510 l 1
10 385 m 1
 10 490 l 1
 106 490 l 1
 106 385 l 1
 10 385 l 1
10 260 m 1
 10 365 l 1
 106 365 l 1
 106 260 l 1
 10 260 l 1
10 135 m 1
 10 240 l 1
 106 240 l 1
 106 135 l 1
 10 135 l 1
472 135 m 1
 472 240 l 1
 568 240 l 1
 568 135 l 1
 472 135 l 1
125 10 m 1
 125 115 l 1
 221 115 l 1
 221 10 l 1
 125 10 l 1
241 10 m 1
 241 115 l 1
 337 115 l 1
 337 10 l 1
 241 10 l 1
356 10 m 1
 356 115 l 1
 452 115 l 1
 452 10 l 1
 356 10 l 1
EndSplineSet
EndChar

StartChar: d
Encoding: 100 100 68
Width: 578
Flags: HW
LayerCount: 2
Back
Fore
SplineSet
472 760 m 1
 472 865 l 1
 568 865 l 1
 568 760 l 1
 472 760 l 1
472 635 m 1
 472 740 l 1
 568 740 l 1
 568 635 l 1
 472 635 l 1
125 510 m 1
 125 615 l 1
 221 615 l 1
 221 510 l 1
 125 510 l 1
241 510 m 1
 241 615 l 1
 337 615 l 1
 337 510 l 1
 241 510 l 1
472 510 m 1
 472 615 l 1
 568 615 l 1
 568 510 l 1
 472 510 l 1
10 385 m 1
 10 490 l 1
 106 490 l 1
 106 385 l 1
 10 385 l 1
356 385 m 1
 356 490 l 1
 452 490 l 1
 452 385 l 1
 356 385 l 1
472 385 m 1
 472 490 l 1
 568 490 l 1
 568 385 l 1
 472 385 l 1
10 260 m 1
 10 365 l 1
 106 365 l 1
 106 260 l 1
 10 260 l 1
472 260 m 1
 472 365 l 1
 568 365 l 1
 568 260 l 1
 472 260 l 1
10 135 m 1
 10 240 l 1
 106 240 l 1
 106 135 l 1
 10 135 l 1
472 135 m 1
 472 240 l 1
 568 240 l 1
 568 135 l 1
 472 135 l 1
125 10 m 1
 125 115 l 1
 221 115 l 1
 221 10 l 1
 125 10 l 1
241 10 m 1
 241 115 l 1
 337 115 l 1
 337 10 l 1
 241 10 l 1
356 10 m 1
 356 115 l 1
 452 115 l 1
 452 10 l 1
 356 10 l 1
472 10 m 1
 472 115 l 1
 568 115 l 1
 568 10 l 1
 472 10 l 1
EndSplineSet
EndChar

StartChar: e
Encoding: 101 101 69
Width: 578
Flags: HW
LayerCount: 2
Back
Fore
SplineSet
125 510 m 1
 125 615 l 1
 221 615 l 1
 221 510 l 1
 125 510 l 1
241 510 m 1
 241 615 l 1
 337 615 l 1
 337 510 l 1
 241 510 l 1
356 510 m 1
 356 615 l 1
 452 615 l 1
 452 510 l 1
 356 510 l 1
10 385 m 1
 10 490 l 1
 106 490 l 1
 106 385 l 1
 10 385 l 1
472 385 m 1
 472 490 l 1
 568 490 l 1
 568 385 l 1
 472 385 l 1
10 260 m 1
 10 365 l 1
 106 365 l 1
 106 260 l 1
 10 260 l 1
125 260 m 1
 125 365 l 1
 221 365 l 1
 221 260 l 1
 125 260 l 1
241 260 m 1
 241 365 l 1
 337 365 l 1
 337 260 l 1
 241 260 l 1
356 260 m 1
 356 365 l 1
 452 365 l 1
 452 260 l 1
 356 260 l 1
472 260 m 1
 472 365 l 1
 568 365 l 1
 568 260 l 1
 472 260 l 1
10 135 m 1
 10 240 l 1
 106 240 l 1
 106 135 l 1
 10 135 l 1
125 10 m 1
 125 115 l 1
 221 115 l 1
 221 10 l 1
 125 10 l 1
241 10 m 1
 241 115 l 1
 337 115 l 1
 337 10 l 1
 241 10 l 1
356 10 m 1
 356 115 l 1
 452 115 l 1
 452 10 l 1
 356 10 l 1
EndSplineSet
EndChar

StartChar: f
Encoding: 102 102 70
Width: 578
Flags: HW
LayerCount: 2
Back
Fore
SplineSet
241 760 m 1
 241 865 l 1
 337 865 l 1
 337 760 l 1
 241 760 l 1
356 760 m 1
 356 865 l 1
 452 865 l 1
 452 760 l 1
 356 760 l 1
125 635 m 1
 125 740 l 1
 221 740 l 1
 221 635 l 1
 125 635 l 1
472 635 m 1
 472 740 l 1
 568 740 l 1
 568 635 l 1
 472 635 l 1
125 510 m 1
 125 615 l 1
 221 615 l 1
 221 510 l 1
 125 510 l 1
10 385 m 1
 10 490 l 1
 106 490 l 1
 106 385 l 1
 10 385 l 1
125 385 m 1
 125 490 l 1
 221 490 l 1
 221 385 l 1
 125 385 l 1
241 385 m 1
 241 490 l 1
 337 490 l 1
 337 385 l 1
 241 385 l 1
125 260 m 1
 125 365 l 1
 221 365 l 1
 221 260 l 1
 125 260 l 1
125 135 m 1
 125 240 l 1
 221 240 l 1
 221 135 l 1
 125 135 l 1
125 10 m 1
 125 115 l 1
 221 115 l 1
 221 10 l 1
 125 10 l 1
EndSplineSet
EndChar

StartChar: g
Encoding: 103 103 71
Width: 578
Flags: HW
LayerCount: 2
Back
Fore
SplineSet
125 635 m 1
 125 740 l 1
 221 740 l 1
 221 635 l 1
 125 635 l 1
241 635 m 1
 241 740 l 1
 337 740 l 1
 337 635 l 1
 241 635 l 1
356 635 m 1
 356 740 l 1
 452 740 l 1
 452 635 l 1
 356 635 l 1
472 635 m 1
 472 740 l 1
 568 740 l 1
 568 635 l 1
 472 635 l 1
10 510 m 1
 10 615 l 1
 106 615 l 1
 106 510 l 1
 10 510 l 1
472 510 m 1
 472 615 l 1
 568 615 l 1
 568 510 l 1
 472 510 l 1
10 385 m 1
 10 490 l 1
 106 490 l 1
 106 385 l 1
 10 385 l 1
472 385 m 1
 472 490 l 1
 568 490 l 1
 568 385 l 1
 472 385 l 1
125 260 m 1
 125 365 l 1
 221 365 l 1
 221 260 l 1
 125 260 l 1
241 260 m 1
 241 365 l 1
 337 365 l 1
 337 260 l 1
 241 260 l 1
356 260 m 1
 356 365 l 1
 452 365 l 1
 452 260 l 1
 356 260 l 1
472 260 m 1
 472 365 l 1
 568 365 l 1
 568 260 l 1
 472 260 l 1
472 135 m 1
 472 240 l 1
 568 240 l 1
 568 135 l 1
 472 135 l 1
125 10 m 1
 125 115 l 1
 221 115 l 1
 221 10 l 1
 125 10 l 1
241 10 m 1
 241 115 l 1
 337 115 l 1
 337 10 l 1
 241 10 l 1
356 10 m 1
 356 115 l 1
 452 115 l 1
 452 10 l 1
 356 10 l 1
EndSplineSet
EndChar

StartChar: h
Encoding: 104 104 72
Width: 578
Flags: HW
LayerCount: 2
Back
Fore
SplineSet
10 760 m 1
 10 865 l 1
 106 865 l 1
 106 760 l 1
 10 760 l 1
10 635 m 1
 10 740 l 1
 106 740 l 1
 106 635 l 1
 10 635 l 1
10 510 m 1
 10 615 l 1
 106 615 l 1
 106 510 l 1
 10 510 l 1
241 510 m 1
 241 615 l 1
 337 615 l 1
 337 510 l 1
 241 510 l 1
356 510 m 1
 356 615 l 1
 452 615 l 1
 452 510 l 1
 356 510 l 1
10 385 m 1
 10 490 l 1
 106 490 l 1
 106 385 l 1
 10 385 l 1
125 385 m 1
 125 490 l 1
 221 490 l 1
 221 385 l 1
 125 385 l 1
472 385 m 1
 472 490 l 1
 568 490 l 1
 568 385 l 1
 472 385 l 1
10 260 m 1
 10 365 l 1
 106 365 l 1
 106 260 l 1
 10 260 l 1
472 260 m 1
 472 365 l 1
 568 365 l 1
 568 260 l 1
 472 260 l 1
10 135 m 1
 10 240 l 1
 106 240 l 1
 106 135 l 1
 10 135 l 1
472 135 m 1
 472 240 l 1
 568 240 l 1
 568 135 l 1
 472 135 l 1
10 10 m 1
 10 115 l 1
 106 115 l 1
 106 10 l 1
 10 10 l 1
472 10 m 1
 472 115 l 1
 568 115 l 1
 568 10 l 1
 472 10 l 1
EndSplineSet
EndChar

StartChar: i
Encoding: 105 105 73
Width: 578
Flags: HW
LayerCount: 2
Back
Fore
SplineSet
241 760 m 1
 241 865 l 1
 337 865 l 1
 337 760 l 1
 241 760 l 1
125 510 m 1
 125 615 l 1
 221 615 l 1
 221 510 l 1
 125 510 l 1
241 510 m 1
 241 615 l 1
 337 615 l 1
 337 510 l 1
 241 510 l 1
241 385 m 1
 241 490 l 1
 337 490 l 1
 337 385 l 1
 241 385 l 1
241 260 m 1
 241 365 l 1
 337 365 l 1
 337 260 l 1
 241 260 l 1
241 135 m 1
 241 240 l 1
 337 240 l 1
 337 135 l 1
 241 135 l 1
125 10 m 1
 125 115 l 1
 221 115 l 1
 221 10 l 1
 125 10 l 1
241 10 m 1
 241 115 l 1
 337 115 l 1
 337 10 l 1
 241 10 l 1
356 10 m 1
 356 115 l 1
 452 115 l 1
 452 10 l 1
 356 10 l 1
EndSplineSet
EndChar

StartChar: j
Encoding: 106 106 74
Width: 578
Flags: HW
LayerCount: 2
Back
Fore
SplineSet
356 760 m 1
 356 865 l 1
 452 865 l 1
 452 760 l 1
 356 760 l 1
241 510 m 1
 241 615 l 1
 337 615 l 1
 337 510 l 1
 241 510 l 1
356 510 m 1
 356 615 l 1
 452 615 l 1
 452 510 l 1
 356 510 l 1
356 385 m 1
 356 490 l 1
 452 490 l 1
 452 385 l 1
 356 385 l 1
356 260 m 1
 356 365 l 1
 452 365 l 1
 452 260 l 1
 356 260 l 1
10 135 m 1
 10 240 l 1
 106 240 l 1
 106 135 l 1
 10 135 l 1
356 135 m 1
 356 240 l 1
 452 240 l 1
 452 135 l 1
 356 135 l 1
125 10 m 1
 125 115 l 1
 221 115 l 1
 221 10 l 1
 125 10 l 1
241 10 m 1
 241 115 l 1
 337 115 l 1
 337 10 l 1
 241 10 l 1
EndSplineSet
EndChar

StartChar: k
Encoding: 107 107 75
Width: 578
Flags: HW
LayerCount: 2
Back
Fore
SplineSet
10 760 m 1
 10 865 l 1
 106 865 l 1
 106 760 l 1
 10 760 l 1
10 635 m 1
 10 740 l 1
 106 740 l 1
 106 635 l 1
 10 635 l 1
10 510 m 1
 10 615 l 1
 106 615 l 1
 106 510 l 1
 10 510 l 1
356 510 m 1
 356 615 l 1
 452 615 l 1
 452 510 l 1
 356 510 l 1
10 385 m 1
 10 490 l 1
 106 490 l 1
 106 385 l 1
 10 385 l 1
241 385 m 1
 241 490 l 1
 337 490 l 1
 337 385 l 1
 241 385 l 1
10 260 m 1
 10 365 l 1
 106 365 l 1
 106 260 l 1
 10 260 l 1
125 260 m 1
 125 365 l 1
 221 365 l 1
 221 260 l 1
 125 260 l 1
10 135 m 1
 10 240 l 1
 106 240 l 1
 106 135 l 1
 10 135 l 1
241 135 m 1
 241 240 l 1
 337 240 l 1
 337 135 l 1
 241 135 l 1
10 10 m 1
 10 115 l 1
 106 115 l 1
 106 10 l 1
 10 10 l 1
356 10 m 1
 356 115 l 1
 452 115 l 1
 452 10 l 1
 356 10 l 1
EndSplineSet
EndChar

StartChar: l
Encoding: 108 108 76
Width: 578
Flags: HW
LayerCount: 2
Back
Fore
SplineSet
125 760 m 1
 125 865 l 1
 221 865 l 1
 221 760 l 1
 125 760 l 1
241 760 m 1
 241 865 l 1
 337 865 l 1
 337 760 l 1
 241 760 l 1
241 635 m 1
 241 740 l 1
 337 740 l 1
 337 635 l 1
 241 635 l 1
241 510 m 1
 241 615 l 1
 337 615 l 1
 337 510 l 1
 241 510 l 1
241 385 m 1
 241 490 l 1
 337 490 l 1
 337 385 l 1
 241 385 l 1
241 260 m 1
 241 365 l 1
 337 365 l 1
 337 260 l 1
 241 260 l 1
241 135 m 1
 241 240 l 1
 337 240 l 1
 337 135 l 1
 241 135 l 1
125 10 m 1
 125 115 l 1
 221 115 l 1
 221 10 l 1
 125 10 l 1
241 10 m 1
 241 115 l 1
 337 115 l 1
 337 10 l 1
 241 10 l 1
356 10 m 1
 356 115 l 1
 452 115 l 1
 452 10 l 1
 356 10 l 1
EndSplineSet
EndChar

StartChar: m
Encoding: 109 109 77
Width: 578
Flags: HW
LayerCount: 2
Back
Fore
SplineSet
10 510 m 1
 10 615 l 1
 106 615 l 1
 106 510 l 1
 10 510 l 1
125 510 m 1
 125 615 l 1
 221 615 l 1
 221 510 l 1
 125 510 l 1
356 510 m 1
 356 615 l 1
 452 615 l 1
 452 510 l 1
 356 510 l 1
10 385 m 1
 10 490 l 1
 106 490 l 1
 106 385 l 1
 10 385 l 1
241 385 m 1
 241 490 l 1
 337 490 l 1
 337 385 l 1
 241 385 l 1
472 385 m 1
 472 490 l 1
 568 490 l 1
 568 385 l 1
 472 385 l 1
10 260 m 1
 10 365 l 1
 106 365 l 1
 106 260 l 1
 10 260 l 1
241 260 m 1
 241 365 l 1
 337 365 l 1
 337 260 l 1
 241 260 l 1
472 260 m 1
 472 365 l 1
 568 365 l 1
 568 260 l 1
 472 260 l 1
10 135 m 1
 10 240 l 1
 106 240 l 1
 106 135 l 1
 10 135 l 1
472 135 m 1
 472 240 l 1
 568 240 l 1
 568 135 l 1
 472 135 l 1
10 10 m 1
 10 115 l 1
 106 115 l 1
 106 10 l 1
 10 10 l 1
472 10 m 1
 472 115 l 1
 568 115 l 1
 568 10 l 1
 472 10 l 1
EndSplineSet
EndChar

StartChar: n
Encoding: 110 110 78
Width: 578
Flags: HW
LayerCount: 2
Back
Fore
SplineSet
10 510 m 1
 10 615 l 1
 106 615 l 1
 106 510 l 1
 10 510 l 1
241 510 m 1
 241 615 l 1
 337 615 l 1
 337 510 l 1
 241 510 l 1
356 510 m 1
 356 615 l 1
 452 615 l 1
 452 510 l 1
 356 510 l 1
10 385 m 1
 10 490 l 1
 106 490 l 1
 106 385 l 1
 10 385 l 1
125 385 m 1
 125 490 l 1
 221 490 l 1
 221 385 l 1
 125 385 l 1
472 385 m 1
 472 490 l 1
 568 490 l 1
 568 385 l 1
 472 385 l 1
10 260 m 1
 10 365 l 1
 106 365 l 1
 106 260 l 1
 10 260 l 1
472 260 m 1
 472 365 l 1
 568 365 l 1
 568 260 l 1
 472 260 l 1
10 135 m 1
 10 240 l 1
 106 240 l 1
 106 135 l 1
 10 135 l 1
472 135 m 1
 472 240 l 1
 568 240 l 1
 568 135 l 1
 472 135 l 1
10 10 m 1
 10 115 l 1
 106 115 l 1
 106 10 l 1
 10 10 l 1
472 10 m 1
 472 115 l 1
 568 115 l 1
 568 10 l 1
 472 10 l 1
EndSplineSet
EndChar

StartChar: o
Encoding: 111 111 79
Width: 578
Flags: HW
LayerCount: 2
Back
Fore
SplineSet
125 510 m 1
 125 615 l 1
 221 615 l 1
 221 510 l 1
 125 510 l 1
241 510 m 1
 241 615 l 1
 337 615 l 1
 337 510 l 1
 241 510 l 1
356 510 m 1
 356 615 l 1
 452 615 l 1
 452 510 l 1
 356 510 l 1
10 385 m 1
 10 490 l 1
 106 490 l 1
 106 385 l 1
 10 385 l 1
472 385 m 1
 472 490 l 1
 568 490 l 1
 568 385 l 1
 472 385 l 1
10 260 m 1
 10 365 l 1
 106 365 l 1
 106 260 l 1
 10 260 l 1
472 260 m 1
 472 365 l 1
 568 365 l 1
 568 260 l 1
 472 260 l 1
10 135 m 1
 10 240 l 1
 106 240 l 1
 106 135 l 1
 10 135 l 1
472 135 m 1
 472 240 l 1
 568 240 l 1
 568 135 l 1
 472 135 l 1
125 10 m 1
 125 115 l 1
 221 115 l 1
 221 10 l 1
 125 10 l 1
241 10 m 1
 241 115 l 1
 337 115 l 1
 337 10 l 1
 241 10 l 1
356 10 m 1
 356 115 l 1
 452 115 l 1
 452 10 l 1
 356 10 l 1
EndSplineSet
EndChar

StartChar: p
Encoding: 112 112 80
Width: 578
Flags: HW
LayerCount: 2
Back
Fore
SplineSet
10 510 m 1
 10 615 l 1
 106 615 l 1
 106 510 l 1
 10 510 l 1
125 510 m 1
 125 615 l 1
 221 615 l 1
 221 510 l 1
 125 510 l 1
241 510 m 1
 241 615 l 1
 337 615 l 1
 337 510 l 1
 241 510 l 1
356 510 m 1
 356 615 l 1
 452 615 l 1
 452 510 l 1
 356 510 l 1
10 385 m 1
 10 490 l 1
 106 490 l 1
 106 385 l 1
 10 385 l 1
472 385 m 1
 472 490 l 1
 568 490 l 1
 568 385 l 1
 472 385 l 1
10 260 m 1
 10 365 l 1
 106 365 l 1
 106 260 l 1
 10 260 l 1
125 260 m 1
 125 365 l 1
 221 365 l 1
 221 260 l 1
 125 260 l 1
241 260 m 1
 241 365 l 1
 337 365 l 1
 337 260 l 1
 241 260 l 1
356 260 m 1
 356 365 l 1
 452 365 l 1
 452 260 l 1
 356 260 l 1
10 135 m 1
 10 240 l 1
 106 240 l 1
 106 135 l 1
 10 135 l 1
10 10 m 1
 10 115 l 1
 106 115 l 1
 106 10 l 1
 10 10 l 1
EndSplineSet
EndChar

StartChar: q
Encoding: 113 113 81
Width: 578
Flags: HW
LayerCount: 2
Back
Fore
SplineSet
125 510 m 1
 125 615 l 1
 221 615 l 1
 221 510 l 1
 125 510 l 1
241 510 m 1
 241 615 l 1
 337 615 l 1
 337 510 l 1
 241 510 l 1
472 510 m 1
 472 615 l 1
 568 615 l 1
 568 510 l 1
 472 510 l 1
10 385 m 1
 10 490 l 1
 106 490 l 1
 106 385 l 1
 10 385 l 1
356 385 m 1
 356 490 l 1
 452 490 l 1
 452 385 l 1
 356 385 l 1
472 385 m 1
 472 490 l 1
 568 490 l 1
 568 385 l 1
 472 385 l 1
125 260 m 1
 125 365 l 1
 221 365 l 1
 221 260 l 1
 125 260 l 1
241 260 m 1
 241 365 l 1
 337 365 l 1
 337 260 l 1
 241 260 l 1
356 260 m 1
 356 365 l 1
 452 365 l 1
 452 260 l 1
 356 260 l 1
472 260 m 1
 472 365 l 1
 568 365 l 1
 568 260 l 1
 472 260 l 1
472 135 m 1
 472 240 l 1
 568 240 l 1
 568 135 l 1
 472 135 l 1
472 10 m 1
 472 115 l 1
 568 115 l 1
 568 10 l 1
 472 10 l 1
EndSplineSet
EndChar

StartChar: r
Encoding: 114 114 82
Width: 578
Flags: HW
LayerCount: 2
Back
Fore
SplineSet
10 510 m 1
 10 615 l 1
 106 615 l 1
 106 510 l 1
 10 510 l 1
241 510 m 1
 241 615 l 1
 337 615 l 1
 337 510 l 1
 241 510 l 1
356 510 m 1
 356 615 l 1
 452 615 l 1
 452 510 l 1
 356 510 l 1
10 385 m 1
 10 490 l 1
 106 490 l 1
 106 385 l 1
 10 385 l 1
125 385 m 1
 125 490 l 1
 221 490 l 1
 221 385 l 1
 125 385 l 1
472 385 m 1
 472 490 l 1
 568 490 l 1
 568 385 l 1
 472 385 l 1
10 260 m 1
 10 365 l 1
 106 365 l 1
 106 260 l 1
 10 260 l 1
10 135 m 1
 10 240 l 1
 106 240 l 1
 106 135 l 1
 10 135 l 1
10 10 m 1
 10 115 l 1
 106 115 l 1
 106 10 l 1
 10 10 l 1
EndSplineSet
EndChar

StartChar: s
Encoding: 115 115 83
Width: 578
Flags: HW
LayerCount: 2
Back
Fore
SplineSet
125 510 m 1
 125 615 l 1
 221 615 l 1
 221 510 l 1
 125 510 l 1
241 510 m 1
 241 615 l 1
 337 615 l 1
 337 510 l 1
 241 510 l 1
356 510 m 1
 356 615 l 1
 452 615 l 1
 452 510 l 1
 356 510 l 1
10 385 m 1
 10 490 l 1
 106 490 l 1
 106 385 l 1
 10 385 l 1
125 260 m 1
 125 365 l 1
 221 365 l 1
 221 260 l 1
 125 260 l 1
241 260 m 1
 241 365 l 1
 337 365 l 1
 337 260 l 1
 241 260 l 1
356 260 m 1
 356 365 l 1
 452 365 l 1
 452 260 l 1
 356 260 l 1
472 135 m 1
 472 240 l 1
 568 240 l 1
 568 135 l 1
 472 135 l 1
10 10 m 1
 10 115 l 1
 106 115 l 1
 106 10 l 1
 10 10 l 1
125 10 m 1
 125 115 l 1
 221 115 l 1
 221 10 l 1
 125 10 l 1
241 10 m 1
 241 115 l 1
 337 115 l 1
 337 10 l 1
 241 10 l 1
356 10 m 1
 356 115 l 1
 452 115 l 1
 452 10 l 1
 356 10 l 1
EndSplineSet
EndChar

StartChar: t
Encoding: 116 116 84
Width: 578
Flags: HW
LayerCount: 2
Back
Fore
SplineSet
125 760 m 1
 125 865 l 1
 221 865 l 1
 221 760 l 1
 125 760 l 1
125 635 m 1
 125 740 l 1
 221 740 l 1
 221 635 l 1
 125 635 l 1
10 510 m 1
 10 615 l 1
 106 615 l 1
 106 510 l 1
 10 510 l 1
125 510 m 1
 125 615 l 1
 221 615 l 1
 221 510 l 1
 125 510 l 1
241 510 m 1
 241 615 l 1
 337 615 l 1
 337 510 l 1
 241 510 l 1
125 385 m 1
 125 490 l 1
 221 490 l 1
 221 385 l 1
 125 385 l 1
125 260 m 1
 125 365 l 1
 221 365 l 1
 221 260 l 1
 125 260 l 1
125 135 m 1
 125 240 l 1
 221 240 l 1
 221 135 l 1
 125 135 l 1
472 135 m 1
 472 240 l 1
 568 240 l 1
 568 135 l 1
 472 135 l 1
241 10 m 1
 241 115 l 1
 337 115 l 1
 337 10 l 1
 241 10 l 1
356 10 m 1
 356 115 l 1
 452 115 l 1
 452 10 l 1
 356 10 l 1
EndSplineSet
EndChar

StartChar: u
Encoding: 117 117 85
Width: 578
Flags: HW
LayerCount: 2
Back
Fore
SplineSet
10 510 m 1
 10 615 l 1
 106 615 l 1
 106 510 l 1
 10 510 l 1
472 510 m 1
 472 615 l 1
 568 615 l 1
 568 510 l 1
 472 510 l 1
10 385 m 1
 10 490 l 1
 106 490 l 1
 106 385 l 1
 10 385 l 1
472 385 m 1
 472 490 l 1
 568 490 l 1
 568 385 l 1
 472 385 l 1
10 260 m 1
 10 365 l 1
 106 365 l 1
 106 260 l 1
 10 260 l 1
472 260 m 1
 472 365 l 1
 568 365 l 1
 568 260 l 1
 472 260 l 1
10 135 m 1
 10 240 l 1
 106 240 l 1
 106 135 l 1
 10 135 l 1
356 135 m 1
 356 240 l 1
 452 240 l 1
 452 135 l 1
 356 135 l 1
472 135 m 1
 472 240 l 1
 568 240 l 1
 568 135 l 1
 472 135 l 1
125 10 m 1
 125 115 l 1
 221 115 l 1
 221 10 l 1
 125 10 l 1
241 10 m 1
 241 115 l 1
 337 115 l 1
 337 10 l 1
 241 10 l 1
472 10 m 1
 472 115 l 1
 568 115 l 1
 568 10 l 1
 472 10 l 1
EndSplineSet
EndChar

StartChar: v
Encoding: 118 118 86
Width: 578
Flags: HW
LayerCount: 2
Back
Fore
SplineSet
10 510 m 1
 10 615 l 1
 106 615 l 1
 106 510 l 1
 10 510 l 1
472 510 m 1
 472 615 l 1
 568 615 l 1
 568 510 l 1
 472 510 l 1
10 385 m 1
 10 490 l 1
 106 490 l 1
 106 385 l 1
 10 385 l 1
472 385 m 1
 472 490 l 1
 568 490 l 1
 568 385 l 1
 472 385 l 1
10 260 m 1
 10 365 l 1
 106 365 l 1
 106 260 l 1
 10 260 l 1
472 260 m 1
 472 365 l 1
 568 365 l 1
 568 260 l 1
 472 260 l 1
125 135 m 1
 125 240 l 1
 221 240 l 1
 221 135 l 1
 125 135 l 1
356 135 m 1
 356 240 l 1
 452 240 l 1
 452 135 l 1
 356 135 l 1
241 10 m 1
 241 115 l 1
 337 115 l 1
 337 10 l 1
 241 10 l 1
EndSplineSet
EndChar

StartChar: w
Encoding: 119 119 87
Width: 578
Flags: HW
LayerCount: 2
Back
Fore
SplineSet
10 510 m 1
 10 615 l 1
 106 615 l 1
 106 510 l 1
 10 510 l 1
472 510 m 1
 472 615 l 1
 568 615 l 1
 568 510 l 1
 472 510 l 1
10 385 m 1
 10 490 l 1
 106 490 l 1
 106 385 l 1
 10 385 l 1
472 385 m 1
 472 490 l 1
 568 490 l 1
 568 385 l 1
 472 385 l 1
10 260 m 1
 10 365 l 1
 106 365 l 1
 106 260 l 1
 10 260 l 1
241 260 m 1
 241 365 l 1
 337 365 l 1
 337 260 l 1
 241 260 l 1
472 260 m 1
 472 365 l 1
 568 365 l 1
 568 260 l 1
 472 260 l 1
10 135 m 1
 10 240 l 1
 106 240 l 1
 106 135 l 1
 10 135 l 1
241 135 m 1
 241 240 l 1
 337 240 l 1
 337 135 l 1
 241 135 l 1
472 135 m 1
 472 240 l 1
 568 240 l 1
 568 135 l 1
 472 135 l 1
125 10 m 1
 125 115 l 1
 221 115 l 1
 221 10 l 1
 125 10 l 1
356 10 m 1
 356 115 l 1
 452 115 l 1
 452 10 l 1
 356 10 l 1
EndSplineSet
EndChar

StartChar: x
Encoding: 120 120 88
Width: 578
Flags: HW
LayerCount: 2
Back
Fore
SplineSet
10 510 m 1
 10 615 l 1
 106 615 l 1
 106 510 l 1
 10 510 l 1
472 510 m 1
 472 615 l 1
 568 615 l 1
 568 510 l 1
 472 510 l 1
125 385 m 1
 125 490 l 1
 221 490 l 1
 221 385 l 1
 125 385 l 1
356 385 m 1
 356 490 l 1
 452 490 l 1
 452 385 l 1
 356 385 l 1
241 260 m 1
 241 365 l 1
 337 365 l 1
 337 260 l 1
 241 260 l 1
125 135 m 1
 125 240 l 1
 221 240 l 1
 221 135 l 1
 125 135 l 1
356 135 m 1
 356 240 l 1
 452 240 l 1
 452 135 l 1
 356 135 l 1
10 10 m 1
 10 115 l 1
 106 115 l 1
 106 10 l 1
 10 10 l 1
472 10 m 1
 472 115 l 1
 568 115 l 1
 568 10 l 1
 472 10 l 1
EndSplineSet
EndChar

StartChar: y
Encoding: 121 121 89
Width: 578
Flags: HW
LayerCount: 2
Back
Fore
SplineSet
10 510 m 1
 10 615 l 1
 106 615 l 1
 106 510 l 1
 10 510 l 1
472 510 m 1
 472 615 l 1
 568 615 l 1
 568 510 l 1
 472 510 l 1
10 385 m 1
 10 490 l 1
 106 490 l 1
 106 385 l 1
 10 385 l 1
472 385 m 1
 472 490 l 1
 568 490 l 1
 568 385 l 1
 472 385 l 1
125 260 m 1
 125 365 l 1
 221 365 l 1
 221 260 l 1
 125 260 l 1
241 260 m 1
 241 365 l 1
 337 365 l 1
 337 260 l 1
 241 260 l 1
356 260 m 1
 356 365 l 1
 452 365 l 1
 452 260 l 1
 356 260 l 1
472 260 m 1
 472 365 l 1
 568 365 l 1
 568 260 l 1
 472 260 l 1
472 135 m 1
 472 240 l 1
 568 240 l 1
 568 135 l 1
 472 135 l 1
125 10 m 1
 125 115 l 1
 221 115 l 1
 221 10 l 1
 125 10 l 1
241 10 m 1
 241 115 l 1
 337 115 l 1
 337 10 l 1
 241 10 l 1
356 10 m 1
 356 115 l 1
 452 115 l 1
 452 10 l 1
 356 10 l 1
EndSplineSet
EndChar

StartChar: z
Encoding: 122 122 90
Width: 578
Flags: HW
LayerCount: 2
Back
Fore
SplineSet
10 510 m 1
 10 615 l 1
 106 615 l 1
 106 510 l 1
 10 510 l 1
125 510 m 1
 125 615 l 1
 221 615 l 1
 221 510 l 1
 125 510 l 1
241 510 m 1
 241 615 l 1
 337 615 l 1
 337 510 l 1
 241 510 l 1
356 510 m 1
 356 615 l 1
 452 615 l 1
 452 510 l 1
 356 510 l 1
472 510 m 1
 472 615 l 1
 568 615 l 1
 568 510 l 1
 472 510 l 1
356 385 m 1
 356 490 l 1
 452 490 l 1
 452 385 l 1
 356 385 l 1
241 260 m 1
 241 365 l 1
 337 365 l 1
 337 260 l 1
 241 260 l 1
125 135 m 1
 125 240 l 1
 221 240 l 1
 221 135 l 1
 125 135 l 1
10 10 m 1
 10 115 l 1
 106 115 l 1
 106 10 l 1
 10 10 l 1
125 10 m 1
 125 115 l 1
 221 115 l 1
 221 10 l 1
 125 10 l 1
241 10 m 1
 241 115 l 1
 337 115 l 1
 337 10 l 1
 241 10 l 1
356 10 m 1
 356 115 l 1
 452 115 l 1
 452 10 l 1
 356 10 l 1
472 10 m 1
 472 115 l 1
 568 115 l 1
 568 10 l 1
 472 10 l 1
EndSplineSet
EndChar

StartChar: braceleft
Encoding: 123 123 91
Width: 578
Flags: HW
LayerCount: 2
Back
Fore
SplineSet
356 760 m 1
 356 865 l 1
 452 865 l 1
 452 760 l 1
 356 760 l 1
241 635 m 1
 241 740 l 1
 337 740 l 1
 337 635 l 1
 241 635 l 1
241 510 m 1
 241 615 l 1
 337 615 l 1
 337 510 l 1
 241 510 l 1
125 385 m 1
 125 490 l 1
 221 490 l 1
 221 385 l 1
 125 385 l 1
241 260 m 1
 241 365 l 1
 337 365 l 1
 337 260 l 1
 241 260 l 1
241 135 m 1
 241 240 l 1
 337 240 l 1
 337 135 l 1
 241 135 l 1
356 10 m 1
 356 115 l 1
 452 115 l 1
 452 10 l 1
 356 10 l 1
EndSplineSet
EndChar

StartChar: bar
Encoding: 124 124 92
Width: 578
Flags: HW
LayerCount: 2
Back
Fore
SplineSet
241 760 m 1
 241 865 l 1
 337 865 l 1
 337 760 l 1
 241 760 l 1
241 635 m 1
 241 740 l 1
 337 740 l 1
 337 635 l 1
 241 635 l 1
241 510 m 1
 241 615 l 1
 337 615 l 1
 337 510 l 1
 241 510 l 1
241 385 m 1
 241 490 l 1
 337 490 l 1
 337 385 l 1
 241 385 l 1
241 260 m 1
 241 365 l 1
 337 365 l 1
 337 260 l 1
 241 260 l 1
241 135 m 1
 241 240 l 1
 337 240 l 1
 337 135 l 1
 241 135 l 1
241 10 m 1
 241 115 l 1
 337 115 l 1
 337 10 l 1
 241 10 l 1
EndSplineSet
EndChar

StartChar: braceright
Encoding: 125 125 93
Width: 578
Flags: HW
LayerCount: 2
Back
Fore
SplineSet
125 760 m 1
 125 865 l 1
 221 865 l 1
 221 760 l 1
 125 760 l 1
241 635 m 1
 241 740 l 1
 337 740 l 1
 337 635 l 1
 241 635 l 1
241 510 m 1
 241 615 l 1
 337 615 l 1
 337 510 l 1
 241 510 l 1
356 385 m 1
 356 490 l 1
 452 490 l 1
 452 385 l 1
 356 385 l 1
241 260 m 1
 241 365 l 1
 337 365 l 1
 337 260 l 1
 241 260 l 1
241 135 m 1
 241 240 l 1
 337 240 l 1
 337 135 l 1
 241 135 l 1
125 10 m 1
 125 115 l 1
 221 115 l 1
 221 10 l 1
 125 10 l 1
EndSplineSet
EndChar

StartChar: asciitilde
Encoding: 126 126 94
Width: 578
Flags: HW
LayerCount: 2
Back
Fore
SplineSet
125 385 m 1
 125 490 l 1
 221 490 l 1
 221 385 l 1
 125 385 l 1
241 385 m 1
 241 490 l 1
 337 490 l 1
 337 385 l 1
 241 385 l 1
472 385 m 1
 472 490 l 1
 568 490 l 1
 568 385 l 1
 472 385 l 1
10 260 m 1
 10 365 l 1
 106 365 l 1
 106 260 l 1
 10 260 l 1
356 260 m 1
 356 365 l 1
 452 365 l 1
 452 260 l 1
 356 260 l 1
EndSplineSet
EndChar

StartChar: block
Encoding: 9608 9608 95
Width: 578
Flags: HW
LayerCount: 2
Back
Fore
SplineSet
10 760 m 1
 10 865 l 1
 106 865 l 1
 106 760 l 1
 10 760 l 1
125 760 m 1
 125 865 l 1
 221 865 l 1
 221 760 l 1
 125 760 l 1
241 760 m 1
 241 865 l 1
 337 865 l 1
 337 760 l 1
 241 760 l 1
356 760 m 1
 356 865 l 1
 452 865 l 1
 452 760 l 1
 356 760 l 1
472 760 m 1
 472 865 l 1
 568 865 l 1
 568 760 l 1
 472 760 l 1
10 635 m 1
 10 740 l 1
 106 740 l 1
 106 635 l 1
 10 635 l 1
125 635 m 1
 125 740 l 1
 221 740 l 1
 221 635 l 1
 125 635 l 1
241 635 m 1
 241 740 l 1
 337 740 l 1
 337 635 l 1
 241 635 l 1
356 635 m 1
 356 740 l 1
 452 740 l 1
 452 635 l 1
 356 635 l 1
472 635 m 1
 472 740 l 1
 568 740 l 1
 568 635 l 1
 472 635 l 1
10 510 m 1
 10 615 l 1
 106 615 l 1
 106 510 l 1
 10 510 l 1
125 510 m 1
 125 615 l 1
 221 615 l 1
 221 510 l 1
 125 510 l 1
241 510 m 1
 241 615 l 1
 337 615 l 1
 337 510 l 1
 241 510 l 1
356 510 m 1
 356 615 l 1
 452 615 l 1
 452 510 l 1
 356 510 l 1
472 510 m 1
 472 615 l 1
 568 615 l 1
 568 510 l 1
 472 510 l 1
10 385 m 1
 10 490 l 1
 106 490 l 1
 106 385 l 1
 10 385 l 1
125 385 m 1
 125 490 l 1
 221 490 l 1
 221 385 l 1
 125 385 l 1
241 385 m 1
 241 490 l 1
 337 490 l 1
 337 385 l 1
 241 385 l 1
356 385 m 1
 356 490 l 1
 452 490 l 1
 452 385 l 1
 356 385 l 1
472 385 m 1
 472 490 l 1
 568 490 l 1
 568 385 l 1
 472 385 l 1
10 260 m 1
 10 365 l 1
 106 365 l 1
 106 260 l 1
 10 260 l 1
125 260 m 1
 125 365 l 1
 221 365 l 1
 221 260 l 1
 125 260 l 1
241 260 m 1
 241 365 l 1
 337 365 l 1
 337 260 l 1
 241 260 l 1
356 260 m 1
 356 365 l 1
 452 365 l 1
 452 260 l 1
 356 260 l 1
472 260 m 1
 472 365 l 1
 568 365 l 1
 568 260 l 1
 472 260 l 1
10 135 m 1
 10 240 l 1
 106 240 l 1
 106 135 l 1
 10 135 l 1
125 135 m 1
 125 240 l 1
 221 240 l 1
 221 135 l 1
 125 135 l 1
241 135 m 1
 241 240 l 1
 337 240 l 1
 337 135 l 1
 241 135 l 1
356 135 m 1
 356 240 l 1
 452 240 l 1
 452 135 l 1
 356 135 l 1
472 135 m 1
 472 240 l 1
 568 240 l 1
 568 135 l 1
 472 135 l 1
10 10 m 1
 10 115 l 1
 106 115 l 1
 106 10 l 1
 10 10 l 1
125 10 m 1
 125 115 l 1
 221 115 l 1
 221 10 l 1
 125 10 l 1
241 10 m 1
 241 115 l 1
 337 115 l 1
 337 10 l 1
 241 10 l 1
356 10 m 1
 356 115 l 1
 452 115 l 1
 452 10 l 1
 356 10 l 1
472 10 m 1
 472 115 l 1
 568 115 l 1
 568 10 l 1
 472 10 l 1
10 -115 m 1
 10 -10 l 1
 106 -10 l 1
 106 -115 l 1
 10 -115 l 1
125 -115 m 1
 125 -10 l 1
 221 -10 l 1
 221 -115 l 1
 125 -115 l 1
241 -115 m 1
 241 -10 l 1
 337 -10 l 1
 337 -115 l 1
 241 -115 l 1
356 -115 m 1
 356 -10 l 1
 452 -10 l 1
 452 -115 l 1
 356 -115 l 1
472 -115 m 1
 472 -10 l 1
 568 -10 l 1
 568 -115 l 1
 472 -115 l 1
EndSplineSet
EndChar
